<svg version="1.1" id="el_3vDnPs0we" xmlns="http://www.w3.org/2000/svg" xmlns:xlink="http://www.w3.org/1999/xlink" x="0px" y="0px" viewBox="0 0 483 128" style="enable-background:new 0 0 483.7 128.1;" xml:space="preserve"><style>@-webkit-keyframes el_HkSnTH3QIY_Animation{83.33%{opacity: 0;}90%{opacity: 1;}0%{opacity: 0;}100%{opacity: 1;}}@keyframes el_HkSnTH3QIY_Animation{83.33%{opacity: 0;}90%{opacity: 1;}0%{opacity: 0;}100%{opacity: 1;}}@-webkit-keyframes el_c8cnoiFHzh_Animation{81.67%{opacity: 0;}88.33%{opacity: 1;}0%{opacity: 0;}100%{opacity: 1;}}@keyframes el_c8cnoiFHzh_Animation{81.67%{opacity: 0;}88.33%{opacity: 1;}0%{opacity: 0;}100%{opacity: 1;}}@-webkit-keyframes el_SBqMvqIr3j_Animation{80%{opacity: 0;}86.67%{opacity: 1;}0%{opacity: 0;}100%{opacity: 1;}}@keyframes el_SBqMvqIr3j_Animation{80%{opacity: 0;}86.67%{opacity: 1;}0%{opacity: 0;}100%{opacity: 1;}}@-webkit-keyframes el_TJy4AnThZy_Animation{78.33%{opacity: 0;}85%{opacity: 1;}0%{opacity: 0;}100%{opacity: 1;}}@keyframes el_TJy4AnThZy_Animation{78.33%{opacity: 0;}85%{opacity: 1;}0%{opacity: 0;}100%{opacity: 1;}}@-webkit-keyframes el_XIjIoTD8sg_Animation{76.67%{opacity: 0;}86.67%{opacity: 1;}0%{opacity: 0;}100%{opacity: 1;}}@keyframes el_XIjIoTD8sg_Animation{76.67%{opacity: 0;}86.67%{opacity: 1;}0%{opacity: 0;}100%{opacity: 1;}}@-webkit-keyframes el_SKnhxoc_ox_Animation{75%{opacity: 0;}83.33%{opacity: 1;}0%{opacity: 0;}100%{opacity: 1;}}@keyframes el_SKnhxoc_ox_Animation{75%{opacity: 0;}83.33%{opacity: 1;}0%{opacity: 0;}100%{opacity: 1;}}@-webkit-keyframes el_rrlXfZF4-S_Animation{80%{opacity: 0;}93.33%{opacity: 1;}0%{opacity: 0;}100%{opacity: 1;}}@keyframes el_rrlXfZF4-S_Animation{80%{opacity: 0;}93.33%{opacity: 1;}0%{opacity: 0;}100%{opacity: 1;}}@-webkit-keyframes el_bun5QBznct_Animation{78.33%{opacity: 0;}90%{opacity: 1;}0%{opacity: 0;}100%{opacity: 1;}}@keyframes el_bun5QBznct_Animation{78.33%{opacity: 0;}90%{opacity: 1;}0%{opacity: 0;}100%{opacity: 1;}}@-webkit-keyframes el_Ib0fwgphgJ_Animation{76.67%{opacity: 0;}86.67%{opacity: 1;}0%{opacity: 0;}100%{opacity: 1;}}@keyframes el_Ib0fwgphgJ_Animation{76.67%{opacity: 0;}86.67%{opacity: 1;}0%{opacity: 0;}100%{opacity: 1;}}@-webkit-keyframes el_nSmjDXrGrs_Animation{75%{opacity: 0;}83.33%{opacity: 1;}0%{opacity: 0;}100%{opacity: 1;}}@keyframes el_nSmjDXrGrs_Animation{75%{opacity: 0;}83.33%{opacity: 1;}0%{opacity: 0;}100%{opacity: 1;}}@-webkit-keyframes el_NQR2HMQGOP_Animation{0%{opacity: 0;}50%{opacity: 1;}100%{opacity: 1;}}@keyframes el_NQR2HMQGOP_Animation{0%{opacity: 0;}50%{opacity: 1;}100%{opacity: 1;}}@-webkit-keyframes el_3d0QX2Tm4t_Animation{20%{opacity: 0;}68.33%{opacity: 1;}0%{opacity: 0;}100%{opacity: 1;}}@keyframes el_3d0QX2Tm4t_Animation{20%{opacity: 0;}68.33%{opacity: 1;}0%{opacity: 0;}100%{opacity: 1;}}@-webkit-keyframes el_0DmM6tHWU9_Animation{30%{opacity: 0;}65%{opacity: 1;}0%{opacity: 0;}100%{opacity: 1;}}@keyframes el_0DmM6tHWU9_Animation{30%{opacity: 0;}65%{opacity: 1;}0%{opacity: 0;}100%{opacity: 1;}}@-webkit-keyframes el_ywJ-aGP5nXF_Animation{10%{opacity: 0;}58.33%{opacity: 1;}0%{opacity: 0;}100%{opacity: 1;}}@keyframes el_ywJ-aGP5nXF_Animation{10%{opacity: 0;}58.33%{opacity: 1;}0%{opacity: 0;}100%{opacity: 1;}}@-webkit-keyframes el_pNRHfRck_f_Animation{35%{opacity: 0;}68.33%{opacity: 1;}0%{opacity: 0;}100%{opacity: 1;}}@keyframes el_pNRHfRck_f_Animation{35%{opacity: 0;}68.33%{opacity: 1;}0%{opacity: 0;}100%{opacity: 1;}}@-webkit-keyframes el_pNRHfRck_f_o_w18Q9-3_Animation{40%{-webkit-transform: translate(0px, -20px);transform: translate(0px, -20px);}71.67%{-webkit-transform: translate(0px, 0px);transform: translate(0px, 0px);}0%{-webkit-transform: translate(0px, -20px);transform: translate(0px, -20px);}100%{-webkit-transform: translate(0px, 0px);transform: translate(0px, 0px);}}@keyframes el_pNRHfRck_f_o_w18Q9-3_Animation{40%{-webkit-transform: translate(0px, -20px);transform: translate(0px, -20px);}71.67%{-webkit-transform: translate(0px, 0px);transform: translate(0px, 0px);}0%{-webkit-transform: translate(0px, -20px);transform: translate(0px, -20px);}100%{-webkit-transform: translate(0px, 0px);transform: translate(0px, 0px);}}@-webkit-keyframes el_0DmM6tHWU9_ssp_aFfth_Animation{30%{-webkit-transform: translate(0px, -20px);transform: translate(0px, -20px);}65%{-webkit-transform: translate(0px, 0px);transform: translate(0px, 0px);}0%{-webkit-transform: translate(0px, -20px);transform: translate(0px, -20px);}100%{-webkit-transform: translate(0px, 0px);transform: translate(0px, 0px);}}@keyframes el_0DmM6tHWU9_ssp_aFfth_Animation{30%{-webkit-transform: translate(0px, -20px);transform: translate(0px, -20px);}65%{-webkit-transform: translate(0px, 0px);transform: translate(0px, 0px);}0%{-webkit-transform: translate(0px, -20px);transform: translate(0px, -20px);}100%{-webkit-transform: translate(0px, 0px);transform: translate(0px, 0px);}}@-webkit-keyframes el_ywJ-aGP5nXF_UKvSbsQWn_Animation{10%{-webkit-transform: translate(0px, -20px);transform: translate(0px, -20px);}60%{-webkit-transform: translate(0px, 0px);transform: translate(0px, 0px);}0%{-webkit-transform: translate(0px, -20px);transform: translate(0px, -20px);}100%{-webkit-transform: translate(0px, 0px);transform: translate(0px, 0px);}}@keyframes el_ywJ-aGP5nXF_UKvSbsQWn_Animation{10%{-webkit-transform: translate(0px, -20px);transform: translate(0px, -20px);}60%{-webkit-transform: translate(0px, 0px);transform: translate(0px, 0px);}0%{-webkit-transform: translate(0px, -20px);transform: translate(0px, -20px);}100%{-webkit-transform: translate(0px, 0px);transform: translate(0px, 0px);}}@-webkit-keyframes el_3d0QX2Tm4t_Q6XXBgEKd_Animation{20%{-webkit-transform: translate(0px, -20px);transform: translate(0px, -20px);}68.33%{-webkit-transform: translate(0px, 0px);transform: translate(0px, 0px);}0%{-webkit-transform: translate(0px, -20px);transform: translate(0px, -20px);}100%{-webkit-transform: translate(0px, 0px);transform: translate(0px, 0px);}}@keyframes el_3d0QX2Tm4t_Q6XXBgEKd_Animation{20%{-webkit-transform: translate(0px, -20px);transform: translate(0px, -20px);}68.33%{-webkit-transform: translate(0px, 0px);transform: translate(0px, 0px);}0%{-webkit-transform: translate(0px, -20px);transform: translate(0px, -20px);}100%{-webkit-transform: translate(0px, 0px);transform: translate(0px, 0px);}}@-webkit-keyframes el_NQR2HMQGOP_SXwJ-99Vz_Animation{0%{-webkit-transform: translate(0px, -20px);transform: translate(0px, -20px);}50%{-webkit-transform: translate(0px, 0px);transform: translate(0px, 0px);}100%{-webkit-transform: translate(0px, 0px);transform: translate(0px, 0px);}}@keyframes el_NQR2HMQGOP_SXwJ-99Vz_Animation{0%{-webkit-transform: translate(0px, -20px);transform: translate(0px, -20px);}50%{-webkit-transform: translate(0px, 0px);transform: translate(0px, 0px);}100%{-webkit-transform: translate(0px, 0px);transform: translate(0px, 0px);}}#el_3vDnPs0we *{-webkit-animation-duration: 2s;animation-duration: 2s;-webkit-animation-timing-function: cubic-bezier(0, 0, 1, 1);animation-timing-function: cubic-bezier(0, 0, 1, 1);}#el_rrlXfZF4-S{fill: #F2F2F2;-webkit-animation-name: el_rrlXfZF4-S_Animation;animation-name: el_rrlXfZF4-S_Animation;opacity: 1;-webkit-animation-timing-function: cubic-bezier(0, 0, 0.58, 1);animation-timing-function: cubic-bezier(0, 0, 0.58, 1);}#el_bun5QBznct{fill: #F2F2F2;-webkit-animation-name: el_bun5QBznct_Animation;animation-name: el_bun5QBznct_Animation;opacity: 1;-webkit-animation-timing-function: cubic-bezier(0, 0, 0.58, 1);animation-timing-function: cubic-bezier(0, 0, 0.58, 1);}#el_Ib0fwgphgJ{fill: #F2F2F2;-webkit-animation-name: el_Ib0fwgphgJ_Animation;animation-name: el_Ib0fwgphgJ_Animation;opacity: 1;-webkit-animation-timing-function: cubic-bezier(0, 0, 0.58, 1);animation-timing-function: cubic-bezier(0, 0, 0.58, 1);}#el_nSmjDXrGrs{fill: #F2F2F2;-webkit-animation-name: el_nSmjDXrGrs_Animation;animation-name: el_nSmjDXrGrs_Animation;opacity: 1;-webkit-animation-timing-function: cubic-bezier(0, 0, 0.58, 1);animation-timing-function: cubic-bezier(0, 0, 0.58, 1);}#el_SKnhxoc_ox{fill: #F2F2F2;-webkit-animation-name: el_SKnhxoc_ox_Animation;animation-name: el_SKnhxoc_ox_Animation;opacity: 1;-webkit-animation-timing-function: cubic-bezier(0, 0, 0.58, 1);animation-timing-function: cubic-bezier(0, 0, 0.58, 1);}#el_XIjIoTD8sg{fill: #F2F2F2;-webkit-animation-name: el_XIjIoTD8sg_Animation;animation-name: el_XIjIoTD8sg_Animation;opacity: 1;-webkit-animation-timing-function: cubic-bezier(0, 0, 0.58, 1);animation-timing-function: cubic-bezier(0, 0, 0.58, 1);}#el_TJy4AnThZy{fill: #F2F2F2;-webkit-animation-name: el_TJy4AnThZy_Animation;animation-name: el_TJy4AnThZy_Animation;opacity: 1;-webkit-animation-timing-function: cubic-bezier(0, 0, 0.58, 1);animation-timing-function: cubic-bezier(0, 0, 0.58, 1);}#el_SBqMvqIr3j{fill: #F2F2F2;-webkit-animation-name: el_SBqMvqIr3j_Animation;animation-name: el_SBqMvqIr3j_Animation;opacity: 1;-webkit-animation-timing-function: cubic-bezier(0, 0, 0.58, 1);animation-timing-function: cubic-bezier(0, 0, 0.58, 1);}#el_c8cnoiFHzh{fill: #F2F2F2;-webkit-animation-name: el_c8cnoiFHzh_Animation;animation-name: el_c8cnoiFHzh_Animation;opacity: 1;-webkit-animation-timing-function: cubic-bezier(0, 0, 0.58, 1);animation-timing-function: cubic-bezier(0, 0, 0.58, 1);}#el_HkSnTH3QIY{fill: #F2F2F2;-webkit-animation-name: el_HkSnTH3QIY_Animation;animation-name: el_HkSnTH3QIY_Animation;opacity: 1;-webkit-animation-timing-function: cubic-bezier(0, 0, 0.58, 1);animation-timing-function: cubic-bezier(0, 0, 0.58, 1);}#el_pNRHfRck_f{fill: none;stroke: #2AB16E;stroke-width: 7;stroke-miterlimit: 10;-webkit-animation-name: el_pNRHfRck_f_Animation;animation-name: el_pNRHfRck_f_Animation;opacity: 1;}#el_NQR2HMQGOP{fill: none;stroke: #2AB16E;stroke-width: 7;stroke-miterlimit: 10;-webkit-animation-name: el_NQR2HMQGOP_Animation;animation-name: el_NQR2HMQGOP_Animation;opacity: 1;}#el_3d0QX2Tm4t{fill: none;stroke: #2AB16E;stroke-width: 7;stroke-miterlimit: 10;-webkit-animation-name: el_3d0QX2Tm4t_Animation;animation-name: el_3d0QX2Tm4t_Animation;opacity: 1;}#el_0DmM6tHWU9{fill: none;stroke: #2AB16E;stroke-width: 7;stroke-miterlimit: 10;-webkit-animation-name: el_0DmM6tHWU9_Animation;animation-name: el_0DmM6tHWU9_Animation;opacity: 1;}#el_ywJ-aGP5nXF{fill: none;stroke: #2AB16E;stroke-width: 7;stroke-miterlimit: 10;-webkit-animation-name: el_ywJ-aGP5nXF_Animation;animation-name: el_ywJ-aGP5nXF_Animation;opacity: 1;}#el_pNRHfRck_f_8iQhZneG_{-webkit-transform-origin: 50% 50%;transform-origin: 50% 50%;transform-box: fill-box;-webkit-transform: translate(0px, 0px);transform: translate(0px, 0px);}#el_NQR2HMQGOP_SXwJ-99Vz{-webkit-animation-name: el_NQR2HMQGOP_SXwJ-99Vz_Animation;animation-name: el_NQR2HMQGOP_SXwJ-99Vz_Animation;-webkit-transform-origin: 50% 50%;transform-origin: 50% 50%;transform-box: fill-box;-webkit-transform: translate(0px, 0px);transform: translate(0px, 0px);-webkit-animation-timing-function: cubic-bezier(0, 0, 0.58, 1);animation-timing-function: cubic-bezier(0, 0, 0.58, 1);}#el_3d0QX2Tm4t_Q6XXBgEKd{-webkit-transform-origin: 50% 50%;transform-origin: 50% 50%;transform-box: fill-box;-webkit-transform: translate(0px, 0px);transform: translate(0px, 0px);-webkit-animation-name: el_3d0QX2Tm4t_Q6XXBgEKd_Animation;animation-name: el_3d0QX2Tm4t_Q6XXBgEKd_Animation;-webkit-animation-timing-function: cubic-bezier(0, 0, 0.58, 1);animation-timing-function: cubic-bezier(0, 0, 0.58, 1);}#el_ywJ-aGP5nXF_UKvSbsQWn{-webkit-animation-name: el_ywJ-aGP5nXF_UKvSbsQWn_Animation;animation-name: el_ywJ-aGP5nXF_UKvSbsQWn_Animation;-webkit-transform-origin: 50% 50%;transform-origin: 50% 50%;transform-box: fill-box;-webkit-transform: translate(0px, 0px);transform: translate(0px, 0px);-webkit-animation-timing-function: cubic-bezier(0, 0, 0.58, 1);animation-timing-function: cubic-bezier(0, 0, 0.58, 1);}#el_0DmM6tHWU9_ssp_aFfth{-webkit-transform-origin: 50% 50%;transform-origin: 50% 50%;transform-box: fill-box;-webkit-transform: translate(0px, 0px);transform: translate(0px, 0px);-webkit-animation-name: el_0DmM6tHWU9_ssp_aFfth_Animation;animation-name: el_0DmM6tHWU9_ssp_aFfth_Animation;-webkit-animation-timing-function: cubic-bezier(0, 0, 0.58, 1);animation-timing-function: cubic-bezier(0, 0, 0.58, 1);}#el_pNRHfRck_f_o_w18Q9-3{-webkit-animation-name: el_pNRHfRck_f_o_w18Q9-3_Animation;animation-name: el_pNRHfRck_f_o_w18Q9-3_Animation;-webkit-transform-origin: 50% 50%;transform-origin: 50% 50%;transform-box: fill-box;-webkit-transform: translate(0px, 0px);transform: translate(0px, 0px);-webkit-animation-timing-function: cubic-bezier(0, 0, 0.58, 1);animation-timing-function: cubic-bezier(0, 0, 0.58, 1);}</style>

<g id="el_H48AN_Gl2u">
	<path d="M25.2,76.1l20.5-1.3l-0.4,12.9H12.4l-0.8-11l22.1-29.2l-21.5,2.3l-0.4-13.6h33.8L45.5,47L25.2,76.1z" id="el_rrlXfZF4-S"/>
	<path d="M46.9,87.4l15.5-51.1l6.2,0.8l16.6,49.1l-9.5,1.9l-2.4-8.2H59.4l-2.1,9.9L46.9,87.4z M65.4,55.1l-3.6,14.8&#10;&#9;&#9;l8.4,0.4L65.4,55.1z" id="el_bun5QBznct"/>
	<path d="M107.7,87.9l-9.9-15.6l-0.1,0v17l-9-1l-2-51.7l11-0.5v18.7l10.6-16.1l8.2,2.6l-11.9,21.5L117,85.6L107.7,87.9z&#10;&#9;&#9;" id="el_Ib0fwgphgJ"/>
	<path d="M130.9,67.5c-12.1-4.5-15.2-13.3-9.4-26.5c0.7-1.7,2.2-2.9,4.5-3.6c2.2-0.6,5.2-1,8.9-1&#10;&#9;&#9;c5.1,0.2,8.1,1.1,9.1,2.5c2.1,3.3,3.1,6.6,3,10c-0.1,3.3-0.8,6.2-2,8.7l-8.2-1.1c1.7-2.9,2-5.5,0.7-7.8c-0.5-1.1-1.9-1.6-4-1.6&#10;&#9;&#9;c-2.3,0-3.8,0.2-4.4,0.6c-1.1,0.5-1.7,1.2-1.8,2.1c-0.6,3.6,1,6.1,4.6,7.4c10,4.6,15.1,9.7,15.3,15.4c0.1,6.8-0.8,10.8-2.5,12&#10;&#9;&#9;c-3.2,2.4-7.7,3.8-13.5,4.4c-6,0-9.5-2.3-10.7-6.9c-0.6-2.9-0.7-7.1-0.1-12.5l7.6-0.4c0.1,1.7,0.2,3.2,0.3,4.3&#10;&#9;&#9;c0.4,2.7,1.7,4.2,4.2,4.6c3.2,0,5.1-1.4,5.7-4C138.6,72.3,136.3,70,130.9,67.5z" id="el_nSmjDXrGrs"/>
	<path d="M308.7,66c1.6,1.4,2.6,3.1,3,5.2c1.2,4.8,1,9.9-0.3,15.3c-0.9,2.8-6.5,3.8-16.7,3.1l-10-1L283.8,36h14.6&#10;&#9;&#9;c9.2,0.3,14,2.3,14.3,6c0.3,8.9-0.2,15.3-1.4,19.3C310.8,63.4,310,65,308.7,66z M294.2,47.3l0.2,13.3l5.8-0.1&#10;&#9;&#9;c2.6-0.1,3.8-2.5,3.6-7.1c-0.2-3.1-0.9-5-2.1-5.6C300.3,46.9,297.8,46.7,294.2,47.3z M294.4,69.7l0.1,10.4c3.6,0.1,5.9-0.1,7.1-0.5&#10;&#9;&#9;c1.4-0.3,2-1.6,1.8-3.8c0-3.8-1.1-5.9-3.2-6.1L294.4,69.7z" id="el_SKnhxoc_ox"/>
	<path d="M344.5,79.2c-0.2,4.9-3.2,8.2-8.9,9.6c-3.4,0.7-8.3,0.3-14.5-1.2c-3.1-0.7-5-3.3-5.6-7.9&#10;&#9;&#9;c-1-8.3-0.7-22.5,0.9-42.5l10.2,0.8c-1.5,18.1-2,30-1.5,35.7c0.3,2.6,1.1,4.1,2.5,4.7c1.3,0.5,2.5,0.6,3.7,0.3&#10;&#9;&#9;c1.8-0.4,2.9-1.7,3.3-3.9c1-6.4,0.5-17.7-1.5-33.8l10-1.3C344.5,54.6,345,67.8,344.5,79.2z" id="el_XIjIoTD8sg"/>
	<path d="M358.2,70.6v18.5l-9.3-0.8l-1.7-52.1c18.5-1.7,27.9,0.6,28.2,6.8c0.2,8.9-0.4,15.3-1.8,19.2&#10;&#9;&#9;c-0.7,3-2.5,4.8-5.2,5.4l-0.6,0.1l9.3,16.4l-6,6L358.2,70.6z M358.3,45.9v14.2c5.4-0.4,8.2-3,8.4-7.9c0.4-2.8-0.1-4.5-1.5-5.1&#10;&#9;&#9;C363.7,46.3,361.4,45.9,358.3,45.9z" id="el_TJy4AnThZy"/>
	<path d="M393.2,58.7l15.4,0L408,78.9c-0.4,6.5-3.6,10-9.4,10.5c-3.8,0.3-6.5,0.1-8.2-0.7c-4.7-1.3-7.7-4.8-9-10.5&#10;&#9;&#9;c-2.2-13-2.7-24.7-1.6-35.1c0.5-3.3,2.2-5.3,5.1-5.9c6.8-1.7,12.1-2.1,15.7-1.2c5.4,1.6,8.2,4.9,8.4,10c0.1,2.3,0.1,4.9,0,7.6&#10;&#9;&#9;l-9,0.8c-0.1-1.3-0.2-2.6-0.4-3.9c-0.4-2.5-1.4-3.8-3-4c-2.5-0.5-4.4-0.5-5.7,0.1c-1.2,0.5-2,2.2-2.3,4.8&#10;&#9;&#9;c-0.5,5.9-0.1,13.8,1.2,23.7c0.7,2.8,2.8,3.9,6.4,3.2c2.1-0.3,3.2-1.8,3.3-4.4l0.2-6l-6.8,0.4L393.2,58.7z" id="el_SBqMvqIr3j"/>
	<path d="M412.7,86.9l-1.4-48.6l27.4,1.1l-0.6,9.2l-16.5,0.8v5.7l12.1,0.8v9.3l-12.1,0.4v10.3H438l-0.3,9.3L412.7,86.9z&#10;&#9;&#9;" id="el_c8cnoiFHzh"/>
	<path d="M452.8,70.6v18.5l-9.3-0.8l-1.7-52.1c18.5-1.7,27.9,0.6,28.2,6.8c0.2,8.9-0.4,15.3-1.8,19.2&#10;&#9;&#9;c-0.7,3-2.5,4.8-5.2,5.4l-0.6,0.1l9.3,16.4l-6,6L452.8,70.6z M452.9,45.9v14.2c5.4-0.4,8.2-3,8.4-7.9c0.4-2.8-0.1-4.5-1.5-5.1&#10;&#9;&#9;C458.3,46.3,456,45.9,452.9,45.9z" id="el_HkSnTH3QIY"/>
	<g id="el_pNRHfRck_f_o_w18Q9-3" data-animator-group="true" data-animator-type="0"><path d="M178.2,51.8c0-21.5,17.5-39,39-39c21.5,0,39,17.5,39,39H178.2z" id="el_pNRHfRck_f"/></g>
	<g id="el_NQR2HMQGOP_SXwJ-99Vz" data-animator-group="true" data-animator-type="0"><path d="M178.2,97.3c0,7.2,5.8,13,13,13h52c7.2,0,13-5.8,13-13L178.2,97.3z" id="el_NQR2HMQGOP"/></g>
	<g id="el_3d0QX2Tm4t_Q6XXBgEKd" data-animator-group="true" data-animator-type="0"><path d="M168.5,74.5c5.4-5.4,14.1-5.4,19.5,0h0c5.4,5.4,14.1,5.4,19.5,0h0c5.4-5.4,14.1-5.4,19.5,0h0&#10;&#9;&#9;c5.4,5.4,14.1,5.4,19.5,0h0c5.4-5.4,14.1-5.4,19.5,0c-5.4-5.4-14.1-5.4-19.5,0h0c-5.4,5.4-14.1,5.4-19.5,0h0&#10;&#9;&#9;c-5.4-5.4-14.1-5.4-19.5,0h0c-5.4,5.4-14.1,5.4-19.5,0h0C182.6,69.1,173.9,69.1,168.5,74.5z" id="el_3d0QX2Tm4t"/></g>
	<g id="el_0DmM6tHWU9_ssp_aFfth" data-animator-group="true" data-animator-type="0"><path d="M184.7,61.5h65H184.7z" id="el_0DmM6tHWU9"/></g>
	<g id="el_ywJ-aGP5nXF_UKvSbsQWn" data-animator-group="true" data-animator-type="0"><path d="M184.7,87.5h65H184.7z" id="el_ywJ-aGP5nXF"/></g>
</g>
<script>(function(){var a=document.querySelector('#el_3vDnPs0we'),b=a.querySelectorAll('style'),c=function(d){b.forEach(function(f){var g=f.textContent;g&amp;&amp;(f.textContent=g.replace(/transform-box:[^;\r\n]*/gi,'transform-box: '+d))})};c('initial'),window.requestAnimationFrame(function(){return c('fill-box')})})();</script></svg>