<?xml version="1.0" encoding="utf-8"?>
<!-- Generator: Adobe Illustrator 26.3.1, SVG Export Plug-In . SVG Version: 6.00 Build 0)  -->
<svg version="1.1" id="Layer_1" xmlns="http://www.w3.org/2000/svg" xmlns:xlink="http://www.w3.org/1999/xlink" x="0px" y="0px"
	 viewBox="0 0 566.93 396.85" style="enable-background:new 0 0 566.93 396.85;" xml:space="preserve">
<style type="text/css">
	.st0{opacity:0.8;}
	.st1{fill:#010202;}
</style>
<g class="st0">
	<g>
		<g>
			<path class="st1" d="M44.66,254.63L41.65,255l-2.25,0.49l-1.55,0.25l-1.95,0.07l-5,0.94l-1.3,0.33l-2.65,0.31l-4.15,0.92
				l-2.69,0.07l-1.23-0.04l-1.19-0.54l-1.65-1.82l-0.92-3.41l-0.74-3.81l-0.42-4.11l-0.45-2.75l-0.76-3.19l-0.9-4.03l-1.32-8.13
				l-0.52-3.97l-0.55-2.61l-0.7-3.57l-0.56-3.47l-0.25-2.29l-0.66-3.33l-0.33-2.03l-0.74-3.81l-0.35-2.89l-0.25-1.56l-0.25-2.29
				l-0.51-3.11l-0.17-2.55l-0.82-5.02l-0.55-2.61l-0.05-1.83l0.35-2.39l1.74-2.12l2.53-1.03l2.53-0.29l1.69-0.15l4.77-0.9l2.99-0.49
				l2.89-0.35l1.42-0.35l4.54-0.74l1.47,0l2.05-0.21l3.69-0.72l1.87-0.55l7.89-1.28l5.6-0.3l3.25,0.33l1.63,0.22l5.81,1.76
				l1.63,0.96l1.53,1.1l1.41,1.12l1.68,2.06l2.28,3.43l1.8,3.51l0.67,1.86l0.76,4.66l0.17,1.81l-0.37,3.74l-0.63,3.66l-0.98,2.25
				l-1.41,2.68l-0.67,1.95l0.6,0.64l2.25,0.98l1.97,1.52l2.1,2.36l1.82,2.9l1.9,3.37l1.01,2.42l0.85,2.19l0.47,2.13l0.41,3.25
				l-0.37,3.74l-0.15,2.11l-0.61,2.31l-0.77,2.83l-1.2,1.67l-0.89,2.11l-2.06,2.42l-2.94,2.32l-2.34,1.49l-1.72,0.77l-2.95,1.46
				l-3.03,0.99l-1.5,0.61l-1.77,0.41l-1.18,0.31l-1.99,0.57l-2.17,0.23l-3.09,0.62l-3.11,0.51L44.66,254.63z M39.92,203.59
				l5.16-0.72l1.91-0.31l2.35-0.63l3.97-1.26l2.02-1.19l1.98-2.16l0.94-1.75l0.78-1.97L59,191.04l-0.49-2.99l-0.91-1.82l-0.85-1.46
				l-1.31-1.26l-2.88-1.13l-3.05-0.61l-2.03,0.33l-1.46,0.11l-6.08,1.11l-4.68,0.64l-2.99,0.49l-2.31,0.13l-3.37,0.42l-3.79,0.86
				l-2.1,0.71l-0.9,0.51l-0.32,1.04l0.31,1.91l0.17,1.81l-0.09,2.47l0.59,2.85l0.49,2.99l0.71,2.1l0.27,1.67l0.53,1.02l0.6,0.64
				l1.13,0.18l0.98-0.04l2.41-0.27l2.63-0.43l2.53-0.29l3.73-0.48L39.92,203.59z M25.28,204.13l-0.59-2.85l-1.59-9.81l-0.21-2.05
				l0.27-1.39l1.38-0.59l3.57-0.7l12.32-2l8.75-1.3l1.69-0.15l0.3,0.32l-0.08,0.26l-0.32,0.3l-1.87,0.55l-4.43,0.72l-5.04,0.7
				l-4.43,0.72l-3.73,0.48l-3.59,0.58l-2.61,0.55l-1.04,0.41l-0.1,0.88l0.29,2.53l1.65,10.17l0.03,1.71l-0.34,0.18L25.28,204.13z
				 M50.46,239.69l2.85-0.59l3.05-0.87l2.03-0.33l2.23-0.61l2.01-0.45l1.82-0.91l1.08-0.91l1.32-1.69l0.89-2.11l0.32-1.04l0.38-1.41
				l-0.09-2.07l-0.15-2.43l-0.55-1.87l-0.91-1.82l-1.45-2.1l-1.43-1.24l-1.09-0.68l-1.05-0.44l-0.66-0.26l-1.39-0.26l-3.69-0.01
				l-4.44,0.6l-3.25,0.41l-1.42,0.35l-5.38,0.88l-1.58,0.13l-1.77,0.41l-2.39,0.39l-8.83,1.56l-1.6,0.75l-0.28,1.27l0.45,2.01
				l0.53,1.76l0.37,2.27l0.34,3.63l0.5,4.59l0.43,2.63l1,3.15l1.04,0.32l0.64,0.14l2.53-0.29l4.43-0.72l3.73-0.48l2.85-0.59
				l3.15-0.27L50.46,239.69z M47,257.69l-4.09,0.54l-15.95,2.35l-1.81,0.17l-0.06-0.36l0.06-0.38l0.34-0.18l0.58-0.22l6.22-1.01
				l3.85-0.5l1.79-0.29l12.86-1.72l2.87-0.47l10.85-2.01l3.99-1.14l2.45-0.77l2.29-0.99l2.14-1.21l1.34-0.83l1.12-0.67l1.4-1.21
				l1.9-1.91l1.46-1.59l1.18-2.52l1.41-3.42l0.57-3.29l0.09-2.47l-0.19-2.67l-0.36-3.74l-0.59-2.85l-0.77-2.45l-0.75-2.33
				l-1.07-2.03l-0.99-1.56l-0.77-0.98l-0.08-0.48l0.08-0.26l0.34-0.18l0.38,0.06l1.45,2.1l1.72,3.03l0.51,1.63l0.93,2.67l0.41,1.04
				l0.29,2.53l0.43,3.37l0.11,2.19l-0.09,2.47l-0.75,4.42l-0.95,3.22l-0.64,1.33l-1.08,1.65l-2.06,2.42l-2.12,2.06l-1.3,1.07
				l-1.22,0.81l-2.04,1.07l-2.5,1.26l-2.53,1.03l-3.07,0.74l-3.33,0.67l-2.03,0.33l-7.14,1.41L47,257.69z M31.27,240.97l-1.17-7.18
				l-0.66-3.33l-0.7-3.57l-0.39-3.13l0.42-1.17l0.98-0.77l18.28-3.1l4.33-0.58l4.34-0.46l2.43-0.15l0.18,0.34l-0.3,0.42l-0.7,0.24
				l-3.37,0.43l-5.64,0.79l-1.1,0.06l-2.27,0.37l-4.17,0.8l-7.3,1.19l-2.53,0.29l-1.06,0.29l-1.02,0.53l-0.14,0.64l0.64,3.95
				l0.21,2.05l0.59,2.85l0.54,4.09l0.31,1.91l0.23,2.17l-0.2,0.28l-0.48,0.08L31.27,240.97z M73.78,204.96l-0.18-0.34l0.06-0.38
				l0.96-1.63l0.68-1.83l1.01-2.86l0.44-1.79l0.11-2.35l0.01-2.21l-0.27-2.41l-0.66-3.33l-0.59-2.11l-0.87-2.31l-1.39-2.48
				l-1.21-1.4l-0.6-0.64l-0.2-0.46l0.06-0.38l0.34-0.18l0.38,0.06l0.87,0.84l1.07,1.3l0.65,1l0.89,1.7l1.06,2.77l0.57,1.99
				l0.45,2.75l0.52,3.97l-0.15,3.58l-0.47,2.41l-0.68,1.83l-1.33,3.16l-1.18,1.79L73.78,204.96z"/>
		</g>
		<g>
			<path class="st1" d="M133.83,245.52l-1.48-0.25l-1.59-0.12l-3.69-0.57l-2.73-0.76l-1.88-0.71l-1.24-0.27l-1.9-1.07l-1.76-0.72
				l-1.41-0.99l-1.67-1.21l-0.94-1.14l-1.56-1.34l-1.72-1.81l-0.97-1.51l-0.7-1.16l-0.44-1.06l-0.62-1.77l-1.04-2.47l-0.78-2.25
				l-0.22-1.32l-0.44-0.94l-0.03-1.94l-0.31-4.11l-0.38-1.79l-0.06-0.72l-0.22-1.32l-0.29-2.16l0.08-2.19l-0.05-2.3l-0.17-2.17
				l-0.39-1.92l0.3-0.88l-0.21-1.2l-0.25-3.26l-0.22-1.32l-0.08-1.09l-0.36-1.55l-0.39-5.07l0-1.58l-0.08-1.09l-0.25-1.68
				l-0.24-1.56l-0.66-8.58l-0.25-1.68l0.11-1.71l-0.29-2.16l-0.05-2.18l0.1-1.83l0.41-1l1.14-0.94l2.24-0.9l1.93-0.15l1.31-0.34
				l1.23,0.15l1.73,0.35l1.49,0.37l1.28,0.87l0.46,1.3l-0.02,1.34l0.34,1.19l0.28,2.05l0.15,1.93l-0.19,0.62l0.21,1.2l0.25,3.26
				l0.36,1.55l0.16,2.05l0.19,0.96l0.22,1.32l-0.15,1.23l0.1,1.33l-0.03,1.22l0.37,3.25l0.24,3.14l0.18,0.71l0.19,0.96l-0.07,0.73
				l0.1,1.33l-0.02,1.34l0.32,1.07l0.05,2.18l0.06,2.3l0.18,0.84l0.11,1.45l-0.05,0.98l0.33,1.19l0.03,1.94l0.04,2.06l0.21,2.78
				l0.52,3.61l0.33,2.77l0.78,2.25l0.83,2.85l2.03,2.64l1.46,1.59l1.02,0.65l1.91,1.07l2.26,0.92l1.62,0.48l1.86,0.47l1.6,0.24
				l1.59,0.12l2.06-0.04l0.97-0.07l3.03-0.11l5.05-0.75l2.01-0.76l2.47-1.04l2.23-1.02l1.01-1.05l1.35-1.44l0.87-1.28l0.45-0.4
				l0.62-1.38l0.48-1.62l0.16-1.11l0.15-1.23l0.13-1.47l0.12-1.59l-0.18-2.42l0.11-1.71l-0.17-0.59l0.18-0.87l-0.22-1.32l-0.11-3.03
				l-0.22-2.9l0.06-2.44l-0.22-2.9l-0.37-1.67l-0.11-1.45l-0.3-2.29l-0.36-4.71l-0.23-1.44l-0.29-3.75l-0.21-1.2l-0.32-2.53
				l-0.16-2.05l-0.02-3.4l-0.21-2.78l-0.27-1.93l-0.15-1.93l-0.33-2.77l0.05-2.56l0.31-2.33l0.88-1.16l1.05-0.57l1.66-0.49l2.04-0.4
				l1.69-0.13l1.72,0.23l1.99,0.58l1.93,1.43l0.8,2.49l0.39,1.92l0.17,2.17l0.27,1.93l0.12,3.15l0.55,7.13l0.13,3.27l-0.09,1.95
				l0.04,2.06l0.15,1.93l0.25,1.68l0.06,2.43l0.36,3.13l0.67,8.82l0.05,2.18l0.22,2.9l0.32,2.65l0.1,2.91l0.02,1.82l-0.13,3.05
				l-0.18,2.45l-0.26,1.36l-0.62,2.97l-0.67,2.36l-0.93,2.14l-1.17,2.16l-1.58,3.16l-1.88,2.45l-0.46,0.4l-0.92,0.68l-1.16,0.7
				l-0.92,0.68l-1.87,1l-2.44,1.4l-2.24,0.9l-2.15,0.53l-1.41,0.59l-6.93,1.62l-9.18,0.7L133.83,245.52z M123.85,224.64l-0.31-0.83
				l-0.54-2.27l-0.41-2.16l-0.31-2.41l-0.38-3.37l-0.16-3.63l-0.48-6.28l-0.29-2.17l-0.13-3.27l-0.18-2.3l-0.39-3.5l-0.76-9.91
				l-0.38-3.37l-0.18-2.3l-0.18-4l-0.38-4.96l-0.07-2.55l0.35-0.15l0.27,0.34l0.38,1.79l0.2,2.66l0.12,3.15l0.32,4.23l0.39,3.5
				l0.98,12.81l0.36,3.13l0.13,1.69l0.32,2.53l0.52,6.77l0.13,3.27l0.41,3.74l0.34,2.89l0.45,2.76l0.55,2.39l0.22,1.32l-0.09,0.37
				l-0.47,0.16L123.85,224.64z M140.3,249.03l-0.15-0.35l0.09-0.37l0.46-0.28l5.67-0.55l5.28-0.89l2.04-0.4l3.71-0.77l1.77-0.74
				l1.53-0.6l2.33-1.27l1.87-0.99l1.28-0.71l1.27-0.83l1.14-0.94l1.47-1.45l2.3-3.21l1.61-2.8l0.3-0.87l0.81-2.13l1.16-3.86
				l0.44-2.22l0.06-0.73l0.08-2.07l0.05-2.55l-0.05-2.18l-0.47-6.16l-0.04-2.06l-0.4-5.2l-0.43-3.98l-0.39-5.07l-0.4-3.62
				l-0.13-1.69l-0.32-2.53l-0.45-5.92l-0.31-2.41l-0.03-1.94l-0.54-7.13l-0.07-2.55v-1.58l-0.11-1.45l-0.18-0.84l0.09-0.37
				l0.22-0.26l0.37,0.09l0.27,0.34l0.19,0.84l0.21,2.78l0.2,4.24l0.75,9.79l0.35,3.01l1.1,14.38l0.43,4.1l1.21,15.83l0.03,2.06
				l-0.1,1.83l0.02,1.82l-0.41,2.58l-0.55,2.35l-0.78,2.49l-1.43,3.51l-1.6,2.92l-1.64,2.31l-2.48,2.5l-2.4,2.01l-5.03,2.57
				l-1.06,0.45l-4.37,1.67l-4.67,0.96l-3.12,0.48l-4.22,0.44l-2.66,0.2L140.3,249.03z"/>
		</g>
		<g>
			<path class="st1" d="M261.25,239.22l-1.23-0.7l-0.99-0.83l-1.36-1.43l-1.5-2.03l-0.99-1.19l-1-1.31l-1-1.43l-1.12-1.55l-0.75-1.2
				l-0.99-1.19l-1.37-1.91l-1.98-2.14l-1.37-1.67l-1.12-1.55l-1.61-1.91l-1.86-2.14l-1.5-2.03l-1.98-2.26l-1.24-1.67l-0.75-0.95
				l-0.86-0.59l-1.23-0.82l-1.22-0.58l-1.34-0.21l-1.58-0.21l-1.09,0.14l-7.51-0.09l-2.9,0.3l-2.41,0.9l-0.57,1.95l-0.18,3.27
				l-0.19,2.79l-0.09,1.45l-0.06,3.15l0.05,2.42l0.19,3.39l-0.1,0.97l0.05,2.3l-0.08,2.06l0.05,2.54l-0.21,1.7l-0.2,1.94l-0.58,1.22
				l-0.59,0.74l-0.72,0.38l-1.21,0.39l-1.45,0.03l-2.17,0.29l-2.67-0.19l-1.34-0.22l-1.22-0.46l-1.13-1.92l-0.64-1.68l-0.06-2.91
				l-0.18-2.91l-0.15-1.21l0.27-4.73l-0.06-2.91l-0.17-2.42l-0.28-1.93l-0.17-8.24l0.07-2.3l0.09-1.46l-0.14-0.97l-0.11-5.57
				l0.08-2.3l-0.1-4.72l-0.17-2.54l-0.03-1.7l0.22-1.22l-0.27-1.45l-0.05-2.42l-0.14-0.85l0.11-0.73l0.1-1.22l-0.04-2.18l-0.13-0.48
				l0.2-1.82l-0.12-5.81l-0.27-1.21l0.22-1.22l-0.41-2.3l-0.04-2.18l0.07-2.42l0.44-2.07l0.71-1.1l0.71-0.62l1.32-0.75l3.51-0.55
				l5.33,0.14l4.24-0.21l2.78-0.18l1.94-0.04l1.34,0.09l2.06-0.16l2.78-0.18l6.18,0l1.57-0.03l2.3-0.17l5.57-0.11l2.79,0.07
				l6.55,0.47l1.46,0.34l2.19,0.68l2.81,1.16l3.07,1.76l1.73,1.66l0.99,1.07l1.86,1.9l1.13,2.04l0.65,1.93l0.89,2.04l0.64,1.68
				l0.5,0.96l0.27,1.08l0.26,0.96l-0.09,1.46l0.15,1.57l0.18,2.9l0.2,3.75l-0.09,1.82l-0.22,0.97l-0.34,1.34l-0.46,1.34l-0.8,2.44
				l-1.15,2.81l-0.71,1.1l-0.7,1.23l-1.3,1.48l-1.19,1.11l-1.18,1.36l-2.03,1.37l-1.44,0.76l-2.03,1.5l-2.52,1.14l-0.71,0.74
				l0.13,0.6l0.13,0.48l0.75,1.2l1.38,2.15l1.74,2.02l1.24,1.43l0.63,1.08l0.99,1.07l3.74,5.14l1.37,1.67l1.49,1.91l1.24,1.43
				l1,1.56l1.37,1.67l0.89,2.16l-0.23,0.85l-0.45,1.58l-1.41,2.45l-1.67,1.12l-2.03,1.49l-2.64,1.14L261.25,239.22z M208.48,242.46
				l-0.13-0.48l0.36-0.25l2.18-0.17l3.14-0.31l1.8-0.76l0.95-1.11l0.57-1.59l0.1-1.09l0.09-1.7l-0.03-1.82l0.08-2.18l-0.18-8.85
				l0.02-5.21l0.05-3.39l0.07-2.3l0.2-2.07l0.35-0.61l1.57-0.27l5.57-0.23l7.27-0.15l0.49,0.35l0.13,0.48l-0.35,0.37l-2.66,0.18
				l-4.48-0.03l-4,0.08l-2.18,0.17l-0.59,0.5l-0.19,2.79l-0.07,2.67l-0.06,3.27l0.11,5.57l-0.06,3.15l0.02,1.09l0.15,1.57
				l-0.09,1.58l-0.09,1.45l0.05,2.3l-0.31,2.55l-1.04,2.45l-1.66,1.61l-1.45,0.39l-3.75,0.32l-1.21,0.02L208.48,242.46z
				 M243.94,191.69l1.09-0.14l1.33-0.15l0.97-0.14l1.21,0.1l1.08-0.51l0.84-0.38l1.08-0.38l0.71-0.62l0.83-0.87l0.71-0.98l0.92-2.56
				l0.43-2.55l0.22-1.09l0.09-1.82l0.21-1.46l-0.28-1.81l-0.65-2.17l-0.65-1.93l-1.5-2.27l-2.09-1.29l-1.71-0.45l-2.32-0.68
				l-2.3-0.08l-1.82-0.08l-1.09-0.1l-1.09,0.02l-1.34-0.09l-1.45,0.27l-8.12,0.16l-1.7-0.09l-1.94,0.04l-2.18,0.16l-1.82-0.33
				l-3.75,0.07l-2.9,0.42l-0.72,0.26l-0.35,0.86l-0.09,1.58l-0.06,3.15l0.08,3.88l-0.07,2.79l0.2,3.87l-0.05,3.64l0.41,2.17
				l1.84,1.05l1.58,0.33l1.58,0.09l2.18-0.29l1.34,0.22l2.67,0.07l2.54-0.05l0.73,0.11l2.66-0.18l3.27-0.07l5.1,0.38L243.94,191.69z
				 M216.88,189.81l-0.13-0.36l-0.15-7.63l0.06-3.15l-0.05-2.54l0.08-2.06l-0.02-0.85l0.09-1.58l0.34-1.22l0.84-0.26l1.21-0.15
				l1.94-0.16l12.72-0.25l4.96-0.22l1.94-0.16l1.7-0.03l5.45,0.01l0.49,0.23l0.01,0.36l-0.48,0.37l-2.66,0.05l-10.53,0.45
				l-7.27,0.15l-2.66,0.17l-4.36-0.03l-1.21,0.02l-0.96,0.38l-0.34,1.1l-0.09,1.58l0.03,1.58l-0.1,1.09l0.24,11.87l-0.22,1.09
				l-0.24,0.25l-0.36,0.01L216.88,189.81z M267.95,241.02l-0.01-0.49l0.23-0.37l3.82-2.74l1.55-1.48l0.71-1.1l0.35-0.98l-0.02-1.21
				l-0.15-1.21l-1.63-2.76l-3.11-4.06l-2.23-2.62l-1.12-1.43l-1.49-2.03l-2.24-2.74l-3.24-4.3l-1.49-1.91l-1.24-1.55l-0.76-1.56
				l0.11-0.61l2.4-1.02l3.72-1.77l2.39-1.62l1.55-1.12l2.14-2.23l1.3-1.72l1.89-2.7l0.81-1.95l0.8-2.68l0.54-3.04l0.17-3.52
				l-0.06-3.27l-0.15-1.57l-0.55-3.26l-0.55-3.14l-0.14-0.6l-0.64-1.8l-0.64-1.56l0.11-0.36l0.24-0.25l0.36-0.13l0.5,0.48l0.52,1.57
				l0.64,1.8l0.93,4.22l0.42,3.02l0.19,3.27l-0.16,4l-0.52,4.13l-0.56,2.19l-0.46,1.22l-0.93,1.84l-1.76,2.94l-1.89,2.34l-2.14,1.86
				l-2.99,2.12l-6.11,3.39l0.26,0.72l1.36,1.55l1.24,1.55l1.25,1.67l2.49,3.22l3.36,4.17l2.48,2.98l1.74,2.15l2.62,3.58l1.64,3.36
				l0.16,1.81l-0.69,1.83l-0.94,1.59l-1.43,1.24l-2.39,1.74l-1.68,1l-0.36,0.13l-0.36,0.01L267.95,241.02z"/>
		</g>
		<g>
			<path class="st1" d="M327.96,241.6l-2.17-0.31l-2.28-0.8l-2.53-0.57l-1.2-0.4l-1.92-0.67l-3.36-1.08l-2.27-1.04l-4.28-2.56
				l-2.36-2.02l-1.66-1.14l-1.29-1.25l-2.24-2.01l-1.99-2.25l-1.39-2.11l-1.86-2.48l-1.73-2.84l-1.35-3.32l-0.88-2.69l-0.68-1.48
				l-0.43-1.59l-0.53-2.44l-0.3-1.95l-0.2-1.34l-0.3-2.07l-0.17-2.31l-0.21-1.1l0.17-1.45l-0.16-2.55l0.3-1.93l0.03-0.97l0.19-2.05
				l0.55-1.92l0.3-1.81l0.54-1.68l0.29-1.32l0.53-1.56l0.64-1.07l0.4-1.08l0.27-0.84l1.03-1.78l1.15-1.9l0.76-1.07l1.29-2.26
				l2.01-2.24l1.77-2.37l2.87-2.57l2.86-2.21l1.24-1.05l1.98-1.15l2.47-1.5l1.36-0.68l1.48-0.92l1.36-0.68l1.35-0.44l2.08-0.54
				l3.06-0.87l2.94-0.88l2.55-0.28l1.59-0.31l2.79,0.09l2.43-0.04l2.77,0.45l3.02,0.34l0.84,0.27l1.81,0.3l2.4,0.68l1.8,0.42
				l1.2,0.4l2.99,1.19l1.78,1.03l1.31,0.65l1.07,0.76l3.58,1.81l2.24,1.89l1.89,1.4l1.29,1.25l0.82,0.75l1.4,1.86l1.74,2.36
				l0.79,1.72l0.3,1.83l-0.8,2.4l-1.27,1.78l-1.74,1.28l-2.59,1.25l-2.67,0.03l-1.68-0.66l-1.77-1.63l-2.35-2.38l-2.71-2.39
				l-2.97-2.03l-2.73-1.67l-2.15-0.92l-1.92-0.67l-6.74-1.43l-2.29-0.32l-0.61,0.1l-2.67,0.16l-4.14,0.59l-2.68,0.52l-1.84,0.79
				l-2.71,1.24l-2.59,1.49l-1.49,1.16l-1.12,1.05l-1,0.82l-3.52,3.76l-0.64,1.07l-0.89,1.18l-1.42,2.86l-1.05,2.39l-0.67,1.92
				l-0.93,2.64l-0.6,3.5l-0.13,4.12l0.3,2.07l0.15,2.92l0.18,2.07l0.42,1.95l0.67,1.72l0.68,1.48l0.81,1.24l0.68,1.36l1.06,1.12
				l0.81,1.12l1.04,1.73l0.93,1.24l1.77,1.63l3.42,3.02l3.92,2.43l3.35,1.44l3.24,0.95l2.16,0.56l2.78,0.33l4.73-0.21l2.44-0.28
				l3.18-0.75l2.32-0.65l4.18-1.8l2.6-1.61l1.87-1.64l2.38-2.47l1.14-1.54l1.27-1.78l1.28-2.14l1.29-2.38l0.55-1.92l0.29-1.57
				l-0.08-1.21l-1.54-1.02l-4.96-0.16l-3.4,0.01l-1.2-0.28l-4.48-0.15l-3.64,0l-1.46,0.07l-1.7,0.07l-1.08-0.28l-1.82-0.06
				l-2.53-0.33l-1.92-0.79L330,201.3l-0.42-1.95l-0.26-3.28l0.08-2.42l0.53-1.32l1.02-1.42l1.24-0.69l1.22-0.33l4.96,0.16l4.61-0.21
				l3.63,0.12l1.58-0.07l2.66,0.09l8.6,0.4l2.3,0.07l4.84,0.4l4.23,0.5l1.2,0.4l1.31,0.77l1.75,2l1.09,3.79L376,203.4l-0.63,4.34
				l-0.56,2.29l-0.4,1.08l-0.3,1.69l-1.18,2.75l-0.93,2.64l-0.76,1.19l-0.78,1.67l-1.15,1.9l-0.77,1.19l-1.02,1.54l-1.51,1.77
				l-1.25,1.17l-2.01,2.24l-2.62,2.34l-1.24,0.93l-1.36,0.92l-1.23,0.57l-0.75,0.58l-2.35,1.38l-0.98,0.33l-2.46,1.13l-2.45,0.77
				l-1.83,0.31l-1.72,0.55l-0.98,0.21l-1.09,0.08l-1.83,0.43l-2.06-0.07l-1.1,0.33l-2.3,0.05l-2.3-0.08l-1.46,0.2L327.96,241.6z
				 M308.43,212.11l-0.35-0.5l-0.68-1.36l-0.56-1.35l-0.43-1.59l-0.41-2.2l-0.2-1.34l-0.18-2.07l-0.15-2.79l0.01-4.24l0.36-3.74
				l0.41-1.32l0.52-0.95l0.79-2.03l1.3-2.75l1.28-2.14l1.14-1.42l0.64-0.95l0.51-0.83l0.88-0.94l1.13-1.18l1.5-1.28l3.36-2.56
				l1.98-1.27l1.6-0.92l1.84-0.67l1.47-0.56l1.95-0.42l1.83-0.43l4.5-0.58l0.98-0.21l0.49,0.01l0.35,0.25l0.11,0.37l-0.25,0.35
				l-1.1,0.21l-2.07,0.18l-3.9,0.6l-3.42,0.86l-2.34,1.02l-2.59,1.49l-1.74,1.16l-1.37,1.05l-1.5,1.28l-1.12,1.06l-1.38,1.53
				l-1.26,1.54l-0.89,1.3l-1.15,1.9l-0.9,1.67l-0.78,1.67l-0.78,1.79l-0.41,1.56l-0.54,1.8l-0.16,1.21l-0.18,1.93l-0.18,1.81
				l0.06,1.7l0.29,2.19l0.2,1.34l0.19,1.58l0.41,2.32l0.53,2.2l0.67,1.84l0.46,0.86l-0.02,0.61l-0.38,0.47L308.43,212.11z
				 M331.25,244.86l-0.23-0.25l0.13-0.36l0.5-0.35l1.09-0.09l2.79-0.03l3.04-0.15l2.67-0.28l2.31-0.29l1.7-0.19l2.32-0.53l3.55-1.22
				l3.56-1.46l2.95-1.36l1.73-0.91l1.11-0.57l1.48-0.92l1.99-1.63l1.87-1.64l1.63-1.77l1.38-1.53l0.88-1.06l1.53-2.38l1.56-3.1
				l1.17-2.39l1.58-3.95l1.48-4.44l0.55-2.04l0.72-3.49l0.1-3.03l-0.02-3.15l-0.09-0.85l0.26-0.6l0.49,0.01l0.34,0.62l0.3,1.95
				l0.06,1.94l-0.06,1.94l-0.46,2.89l-0.32,2.29l-0.55,1.92l-0.81,2.4l-0.54,1.68l-2.34,5.02l-1.43,2.98l-2.69,4.4l-2.15,2.72
				l-1.25,1.29l-0.87,0.7l-1.62,1.52l-1.49,1.16l-2.35,1.38l-3.82,1.94l-0.99,0.7l-1.36,0.69l-1.85,0.91l-3.55,1.22l-3.67,0.97
				l-2.2,0.41l-1.58,0.19l-1.7,0.19l-4.13,0.23l-2.79-0.09L331.25,244.86z M337.33,206.87l-1.33-0.17l-0.35-0.37l0.01-0.24
				l0.25-0.23l13.08,0.42l7.63,0.13l1.58,0.05l0.36,0.25l0.11,0.25l-0.13,0.36l-0.49,0.23l-0.36,0.11l-1.45-0.17l-6.19,0.04
				l-3.75-0.12l-2.06,0.05L337.33,206.87z M366.49,182.48l0.01-0.36l0.62-0.46l1.48-0.92l1.62-1.28l1.39-1.77l0.68-2.4l-0.18-2.07
				l-0.22-0.73l0.25-0.35l0.24-0.11l0.36,0.13l0.57,1.23l0.31,1.71l-0.16,1.21l-0.15,0.72l-0.52,1.07l-1.26,1.66l-1.25,1.17
				l-1.12,0.81l-1.36,0.68l-0.86,0.34l-0.24-0.01L366.49,182.48z"/>
		</g>
		<g>
			<path class="st1" d="M441.35,246.84l-0.83-0.2l-1.1,0.02l-2.75-0.5l-2.42-0.1l-1.56-0.27l-3.39-0.19l-2.53-0.23l-2.28-0.33
				l-1.93-0.18l-1.71,0.08l-1.92-0.3l-0.62,0.07l-2.63-0.49l-3.62-0.34l-3.97-0.49l-4.35-0.28l-3.86-0.36l-1.92-0.3l-1.83-1.26
				l-1.22-2.55l0.03-2.92l0.8-8.56l0.23-3.75l0.38-2.76l0.35-3.74l0.09-2.3l0.12-2.55l-0.01-1.22l0.16-1.69l0.29-1.8l0.27-2.9
				l-0.09-0.37l0.22-1.07l0.01-1.46l0.1-1.08l0.15-2.91l0.59-5.06l0.44-3.37l0.19-2.05l0.2-3.51l0.73-7.84l-0.05-2.07l0.27-1.56
				l0.13-1.45l0.34-2.28l0.12-1.33l0.33-2.28l0.42-3.25l0.63-1.52l0.97-1.25l1.41-0.72l1.01-0.39l1.35-0.12l3.5,0.33l5.04,0.71
				l7.96,0.74l3.39,0.19l2.54,0.12l3.75,0.23l7.84,0.73l2.62,0.61l2.66,0.25l1.95-0.06l3.37,0.43l1.92,0.3l4.85,0.21l1.32,0.24
				l1.82,0.05l1.91,0.42l1.74,0.89l0.83,1.54l0.5,2.48l0.01,2.56l-0.27,1.56l-0.93,2.1l-1.48,1.57l-1.37,0.36l-2.8-0.02l-4.35-0.28
				l-2.54-0.12l-1.07-0.22l-3.88-0.12l-5.67-0.53l-4.57-0.55l-2.76-0.38l-1.21-0.11l-2.44,0.02l-6.4-0.47l-2.17-0.2l-2.66-0.13
				l-2.29-0.21l-2.23,0.4l-0.54,1.9l-0.31,2.04l-0.32,0.82l-0.19,2.05l-0.38,2.76l-0.04,3.04l-0.41,3.13l0.35,2.83l1.37,0.98
				l0.96,0.09l2.62,0.61l3.16,0.05l2.05,0.19l2.51,0.48l2.68,0l9.18,0.73l6.63,0.62l1.8,0.29l1.99,0.79l1.31,1.58l0.36,1.37
				l0.13,1.23l0.03,0.98l-0.02,2.8l-0.6,2.5l-0.98,1.37l-2.52,0.98l-6.39-0.59l-7.03-0.29l-3.85-0.48l-1.33-0.12l-4.94-0.58
				l-1.46-0.01l-2.16-0.32l-2.91-0.15l-1.47,0.11l-1.61,0.34l-0.91,0.65l-0.28,1.68l-0.29,1.8l-0.43,2.03l-0.25,2.66l-0.05,1.82
				l-0.21,2.29l-0.3,1.92l-0.3,3.26l0.79,3.24l3.24,1.76l8.45,0.78l3.39,0.19l3.37,0.43l6.89,0.52l2.56,0l7.24,0.67l1.42,0.37
				l2.29,0.21l3.73,0.47l2.99,0.52l1.57,0.15l0.94,0.33l1.02,0.83l0.62,1.15l0.16,2.2l-0.35,2.52l-0.14,1.45l-0.36,1.3l-0.62,1.4
				l-0.81,0.9l-0.89,0.4l-1.24,0.25l-6.09,0.04l-3.17,0.07l-3.38-0.31L441.35,246.84z M438.98,250.02l-6.16-0.45l-2.41-0.22
				l-5.89-0.79l-5.31-0.49l-5.56-0.39l-3.85-0.48l-2.66-0.25l-2.4-0.35l-1.92-0.3l-0.34-0.27l0.04-0.48l0.38-0.21l0.98-0.03
				l1.94,0.06l1.8,0.29l3.14,0.29l8.8,0.94l6.52,0.61l3.73,0.47l3.38,0.31l6.65,0.5l2.88,0.39l1.92,0.3l5.19,0.48l4.24,0.27
				l2.17,0.2l3.4,0.07l1.84-0.19l1.31-0.97l1-1.61l0.51-1.54l0.27-1.56l0.28-3.02l0.31-0.7l0.49-0.08l0.21,0.38l0.08,1.71
				l-0.21,2.29l-0.6,2.5l-0.78,1.87l-1.08,1.12l-1.3,0.85l-1.24,0.25l-2.19,0.04l-3.04-0.04l-7.84-0.73l-1.82-0.05L438.98,250.02z
				 M413.46,227.45l0.15-1.57l0.29-1.8l0.32-3.38l0.47-3.73l0.18-1.93l0.35-2.4l0.28-1.68l0.34-1.06l0.68-0.79l0.89-0.4l1.23-0.13
				l3.39,0.19l3.11,0.53l1.58,0.02l2.53,0.24l4.67,0.8l1.46,0.01l2.41,0.22l1.56,0.27l2.77,0.26l3.51,0.2l2.06,0.07l1.83-0.07
				l1.6-0.22l1.14-0.5l0.67-0.67l0.71-1.15l0.52-1.66l0.26-2.78l0.31-2.04l0.38-0.21l0.35,0.15l0.33,0.4l-0.03,1.58l-0.25,2.65
				l-0.55,2.02l-0.59,1.16l-1.33,1.22l-1.93,1.16l-3.54,0.16l-2.56,0l-4.84-0.33l-4.46-0.41l-3.73-0.47l-3.23-0.54l-2.76-0.38
				l-6.64-0.62l-1.7-0.04l-0.38,0.21l-0.45,0.93l-0.36,1.3l-0.21,2.29l-0.46,3.61l-0.2,2.17l-0.46,3.61l-0.35,2.4l-0.34,1.06
				l-0.63,0.18L413.46,227.45z M416.84,191.02l-0.08-0.49l0.28-1.68l1.03-8.42l0.48-2.51l0.53-1.77l0.84-1.14l1.85-0.32l5.65,0.77
				l2.89,0.27l1.7,0.03l2.9,0.27l3.6,0.58l7.24,0.67l3.39,0.19l4.7,0.44l3.97,0.49l2.17,0.2l2.06,0.07l1.34,0l0.71,0.19l2.56-0.01
				l1.26-0.49l1.7-1.3l0.87-1.5l0.18-1.93l0.06-1.94l-0.35-1.49l0.17-0.47l0.39-0.33l0.47,0.17l0.3,0.76l0.28,2.22l0,1.34
				l-0.42,1.91l-1.04,1.97l-1.71,1.42l-1.14,0.5l-2.21,0.16l-4.87,0.03l-6.39-0.59l-3.73-0.47l-4.22-0.39l-4.09-0.5l-5.19-0.48
				l-2.76-0.38l-2.78-0.26l-2.42-0.1l-1.8-0.29l-1.56-0.27l-2.05-0.19l-2.06-0.07l-1.24,0.25l-0.43,0.69l-0.62,2.74l-0.51,4.21
				l-0.4,4.34l-0.35,2.52l-0.3,0.58l-0.37,0.09L416.84,191.02z"/>
		</g>
		<g>
			<path class="st1" d="M537.96,262.91l-1.06-0.94l-0.79-1.01l-1.04-1.68l-1.05-2.29l-0.73-1.37l-0.71-1.49l-0.68-1.61l-0.78-1.75
				l-0.49-1.33l-0.73-1.37l-0.95-2.15l-1.5-2.5l-1-1.91l-0.78-1.75l-1.19-2.2l-1.38-2.48l-1.05-2.3l-1.48-2.62l-0.88-1.89
				l-0.53-1.09l-0.72-0.75l-1.03-1.06l-1.08-0.82l-1.27-0.49l-1.5-0.53l-1.09-0.08l-7.34-1.63l-2.9-0.3l-2.54,0.38l-0.95,1.79
				l-0.85,3.17l-0.75,2.69l-0.39,1.41l-0.7,3.07l-0.45,2.38l-0.51,3.36l-0.3,0.93l-0.43,2.26l-0.5,2l-0.47,2.5l-0.55,1.62l-0.6,1.86
				l-0.82,1.08l-0.73,0.6l-0.78,0.22l-1.26,0.13l-1.43-0.27l-2.19-0.17l-2.58-0.73l-1.26-0.48l-1.1-0.7l-0.71-2.11l-0.28-1.78
				l0.54-2.86l0.42-2.88l0.11-1.22l1.23-4.58l0.54-2.86l0.33-2.4l0.12-1.95l1.53-8.1l0.54-2.24l0.39-1.41l0.06-0.98l1.03-5.48
				l0.54-2.24l0.88-4.64l0.35-2.52l0.32-1.67l0.46-1.15l0.03-1.47l0.45-2.38l0.04-0.86l0.25-0.69l0.34-1.17l0.4-2.14l-0.03-0.5
				l0.58-1.74l1.08-5.71l-0.01-1.24l0.46-1.15l0.07-2.33l0.4-2.14l0.57-2.36l0.86-1.94l0.91-0.94l0.83-0.46l1.44-0.47l3.54,0.18
				l5.19,1.23l4.19,0.67l2.76,0.4l1.91,0.36l1.29,0.36l2.05,0.26l2.76,0.4l6.05,1.26l1.55,0.29l2.29,0.31l5.48,1.03l2.72,0.64
				l6.32,1.81l1.36,0.63l2.01,1.12l2.51,1.71l2.64,2.35l1.35,1.98l0.75,1.25l1.43,2.24l0.69,2.23l0.23,2.02l0.45,2.18l0.28,1.78
				l0.3,1.04l0.03,1.12l0.06,1l-0.39,1.41l-0.17,1.57l-0.42,2.88l-0.58,3.72l-0.46,1.76l-0.42,0.91l-0.6,1.24l-0.72,1.22l-1.28,2.22
				l-1.71,2.51l-0.91,0.94l-0.94,1.06l-1.58,1.18l-1.39,0.85l-1.44,1.08l-2.27,0.93l-1.57,0.44l-2.29,1.05l-2.7,0.6l-0.85,0.58
				l0.01,0.62l0.03,0.5l0.49,1.33l0.9,2.39l1.28,2.34l0.92,1.65l0.39,1.18l0.75,1.25l2.61,5.79l1,1.92l1.07,2.17l0.92,1.65
				l0.66,1.73l1,1.91l0.43,2.3l-0.39,0.79l-0.77,1.46l-1.88,2.11l-1.87,0.76l-2.29,1.05l-2.82,0.58L537.96,262.91z M485.64,255.26
				l-0.03-0.5l0.4-0.17l2.17,0.29l3.14,0.35l1.92-0.38l1.15-0.89l0.89-1.43l0.32-1.05l0.43-1.64l0.34-1.78l0.52-2.12l1.64-8.69
				l1.08-5.1l0.75-3.31l0.54-2.24l0.62-1.98l0.47-0.53l1.59,0.05l5.5,0.91l7.14,1.35l0.41,0.45l0.03,0.5l-0.42,0.29l-2.64-0.37
				l-4.38-0.95l-3.93-0.74l-2.17-0.29l-0.69,0.36l-0.75,2.69l-0.61,2.6l-0.72,3.19l-1.03,5.48l-0.7,3.07l-0.2,1.07l-0.17,1.57
				l-0.41,1.53l-0.39,1.41l-0.43,2.26l-0.83,2.43l-1.52,2.18l-1.96,1.23l-1.5,0.09l-3.73-0.46l-1.19-0.22L485.64,255.26z
				 M530.75,212.85l1.09,0.08l1.33,0.13l0.97,0.06l1.17,0.34l1.16-0.27l0.9-0.2l1.14-0.16l0.83-0.46l0.99-0.68l0.89-0.82l1.42-2.32
				l0.95-2.41l0.44-1.03l0.46-1.77l0.51-1.38l0.1-1.83l-0.19-2.25l-0.24-2.02l-1-2.53l-1.77-1.69l-1.58-0.79l-2.13-1.14l-2.24-0.55
				l-1.76-0.46l-1.05-0.32l-1.07-0.2l-1.29-0.37l-1.47-0.03l-7.98-1.51l-1.64-0.43l-1.91-0.36l-2.16-0.29l-1.72-0.69l-3.69-0.7
				l-2.92-0.18l-0.76,0.1l-0.52,0.77l-0.41,1.53l-0.71,3.07l-0.72,3.81l-0.64,2.72l-0.6,3.83l-0.79,3.55l-0.05,2.21l1.59,1.41
				l1.48,0.65l1.53,0.41l2.19,0.17l1.26,0.48l2.6,0.61l2.5,0.47l0.69,0.25l2.64,0.37l3.21,0.61l4.91,1.42L530.75,212.85z
				 M504.65,205.46l-0.05-0.38l1.42-7.5l0.7-3.07l0.47-2.5l0.5-2l0.16-0.83l0.41-1.53l0.58-1.12l0.88-0.08l1.21,0.11l1.93,0.24
				l12.5,2.36l4.9,0.8l1.93,0.24l1.67,0.32l5.34,1.13l0.43,0.33l-0.07,0.36l-0.54,0.27l-2.62-0.49l-10.4-1.72l-7.14-1.35l-2.64-0.37
				l-4.26-0.93l-1.19-0.22l-1.02,0.18l-0.56,1l-0.41,1.53l-0.29,1.55l-0.32,1.05l-2.2,11.67l-0.44,1.03l-0.28,0.19l-0.36-0.07
				L504.65,205.46z M544.15,266.05l0.09-0.48l0.31-0.31l4.3-1.9l1.82-1.14l0.91-0.94l0.54-0.89l0.22-1.19l0.11-1.21l-1.03-3.03
				l-2.21-4.61l-1.65-3.02l-0.8-1.63l-1.05-2.29l-1.63-3.14l-2.29-4.87l-1.07-2.17l-0.9-1.77l-0.42-1.68l0.23-0.57l2.56-0.5
				l4.01-0.97l2.67-1.1l1.75-0.78l2.55-1.74l1.62-1.42l2.4-2.26l1.19-1.75l1.33-2.46l1.16-2.86l0.89-3.41l0.61-3.21l0.17-1.57
				l0.13-3.31l0.11-3.19l0-0.62l-0.26-1.9l-0.3-1.66l0.18-0.34l0.28-0.19l0.38-0.05l0.39,0.57l0.18,1.64l0.26,1.9l0.05,4.32
				l-0.2,3.04l-0.49,3.24l-0.98,3.89l-1.36,3.93l-1,2.03l-0.7,1.1l-1.29,1.6l-2.32,2.52l-2.33,1.9l-2.48,1.38l-3.36,1.46l-6.68,2.07
				l0.1,0.76l1.02,1.79l0.9,1.77l0.88,1.89l1.77,3.66l2.43,4.78l1.82,3.42l1.26,2.46l1.83,4.04l0.92,3.63l-0.22,1.81l-1.05,1.65
				l-1.24,1.37l-1.65,0.92l-2.7,1.22l-1.85,0.64l-0.38,0.05l-0.36-0.07L544.15,266.05z"/>
		</g>
	</g>
	<g>
		<g>
			<path class="st1" d="M172.66,132.7l-0.95-0.32l-0.56-0.64l-0.24-0.48l-0.16-0.56l-0.08-1.19l-0.24-1.03v-1.83l0.4-1.19l0.71-1.35
				l1.43-2.06l0.95-1.11l0.48-0.64l0.87-0.71l0.79-1.19l0.79-1.03l0.56-0.95l0.48-0.87l0.56-0.4l0.32-0.64l0.24-0.4l0.4-0.4
				l0.56-0.63l0.56-0.79l0.48-0.64l0.48-0.79l0.4-0.56l0.56-0.64l0.48-0.71l1.19-1.19l0.4-0.32l0.48-0.71l0.79-1.03l0.56-0.4
				l0.4-0.71l0.71-0.87l0.56-0.95l0.64-0.79l0.4-0.71l0.56-0.64l3.57-4.37l0.64-0.87l1.91-2.38l0.71-0.79l0.48-0.87l1.43-1.91
				l0.4-0.71l0.56-0.79l0.71-1.03l0.08-0.64l-0.24-0.24l-0.4-0.08l-3.02-0.24l-1.91,0.08h-1.51l-1.98-0.08l-1.83,0.08l-0.79-0.08
				l-1.67-0.08l-5,0.16l-0.64,0.16h-2.94l-0.79-0.16l-0.79,0.08l-0.95-0.08l-1.11-0.24l-1.27-0.32l-0.71-1.03l-0.32-0.87l-0.08-0.79
				v-1.19l-0.08-1.27l0.24-1.19l0.56-1.03l0.95-0.56l0.71-0.24h3.25l1.43,0.08l4.37-0.16l0.87-0.08h2.38l1.03,0.08l1.67-0.08h0.56
				l0.64,0.08h1.43l1.11-0.08l0.95,0.08l0.48-0.08h1.19l0.64,0.08l0.71-0.08l0.87-0.08l0.79,0.24l1.11,0.08l0.87-0.08l0.56,0.16
				l0.56-0.08h0.48l0.95-0.08l0.87-0.16l0.4,0.08l1.11-0.08l0.95,0.16l0.79,0.08h1.43l1.19-0.16h0.87l0.87-0.08l0.71-0.08l0.79,0.24
				l0.71,0.64l0.24,0.48l0.16,0.87l0.08,0.95v2.22l-0.08,0.64l-0.32,1.11l-0.56,0.87l-0.4,0.87l-1.11,1.43l-0.71,0.95l-0.71,0.71
				l-0.87,1.19l-0.71,1.11l-0.4,0.64l-2.46,2.86l-0.95,1.19l-0.71,0.79l-1.03,1.35l-0.95,1.27l-0.71,0.87l-0.56,0.64l-0.95,1.19
				l-0.79,1.19l-0.71,0.95l-1.51,2.06l-1.51,1.91l-1.03,1.43l-0.56,0.79l-0.56,0.56l-0.71,1.03l-1.67,2.22l-0.64,0.87l-0.87,1.19
				l-0.64,0.95l-0.71,0.79l-1.11,1.43l-0.71,1.03l-0.56,0.79l-0.87,0.95l-0.32,0.71l0.24,0.48l2.22,0.32h1.43l0.87-0.08l1.03,0.16
				h1.67l1.67,0.08l1.19,0.08h4.13l1.83,0.08h0.79l2.54-0.24h0.79l0.71,0.16h1.43l0.64-0.08l0.79,0.08l2.06,0.08l2.46,0.24
				l1.19,0.95l0.4,1.59l0.08,1.19l-0.08,0.95l-0.4,1.91l-1.27,1.43l-1.11,0.56l-1.27,0.08l-1.43-0.24l-1.03-0.08l-0.48-0.16
				l-0.4,0.16h-0.71l-1.11,0.08l-0.56-0.08l-1.19,0.16l-1.19-0.16l-0.08-0.16l-0.16-0.24l-0.32,0.08l-1.03,0.16h-5.95l-1.35,0.16
				l-1.03-0.08h-0.95l-1.67,0.08l-1.75-0.08h-2.3l-0.48-0.08l-0.95,0.08l-1.19-0.08l-1.19,0.08l-1.67,0.16h-2.38l-1.51,0.08
				l-0.87-0.08h-0.79l-1.19,0.24L172.66,132.7z"/>
		</g>
		<g>
			<path class="st1" d="M228.14,133.41l-1.03-0.24l-1.43-0.71l-1.11-0.87l-0.79-0.95l-0.32-0.95v-1.43l0.71-1.43l0.48-1.19l0.4-0.87
				l0.48-0.95l0.71-1.67l0.48-1.27l1.51-3.02l0.79-1.75l0.71-1.83l1.27-2.46l0.79-1.83l0.56-1.11l0.56-1.19l0.64-1.35l1.11-2.86
				l0.95-1.67l0.64-1.75l1.11-2.38l1.27-2.94l0.71-1.59l1.19-3.02l0.87-1.83l0.4-1.19l0.71-1.35l0.56-1.11l0.16-0.64l0.32-0.79
				l0.4-1.11l0.56-0.79l0.48-0.95l0.48-0.87l0.32-0.64l0.56-0.95l0.95-0.79l1.98-0.4h2.14l1.03,0.24l0.87,0.79l0.56,1.03l0.48,0.95
				l0.79,1.83l0.79,1.75l1.51,2.94l0.48,1.27l0.56,1.03l0.48,1.43l0.63,1.43l0.4,1.11l0.56,1.11l0.87,1.98l0.87,1.75l0.56,1.43
				l0.56,0.95l0.32,0.87l0.56,1.19l0.71,1.27l0.48,1.27l0.48,1.35l0.48,0.79l0.4,1.03l0.79,1.43l0.63,1.59l1.03,2.46l1.43,2.7
				l0.79,1.91l0.56,1.19l0.32,0.71l0.32,1.03l0.95,1.91l0.71,1.51l0.4,0.64l0.71,1.51l0.56,1.67l0.4,1.35l-0.32,1.75l-0.87,1.03
				l-1.59,0.79l-2.78,0.71l-1.83-0.4l-0.71-0.64l-0.79-0.79l-0.24-1.03l-0.71-1.51l-0.87-1.83l-0.48-0.87l-0.71-1.59l-0.87-1.83
				l-0.32-0.71l-0.56-0.95l-0.71-1.27l-0.56-1.03l-0.79-0.56l-1.59-0.16l-1.98,0.08h-9.29l-2.62-0.08l-2.06,0.16l-1.11-0.08
				l-1.35,0.16l-1.27,0.08l-1.03,0.56l-0.48,0.71l-1.59,3.18l-0.79,1.43l-0.24,0.87l-0.4,0.79l-0.48,1.11l-0.63,1.35l-0.4,1.19
				l-0.79,1.27l-0.95,1.43l-0.87,0.71l-1.27,0.32L228.14,133.41z M256.32,109.28l0.08-0.08l0.24-0.08l0.32-0.71l-0.24-1.43
				l-0.48-1.19l-1.75-3.1l-0.79-1.51l-1.03-2.54l-0.63-1.51l-0.56-1.43l-0.87-2.06l-0.95-0.79l-0.64,1.27l-0.63,1.98l-1.35,3.02
				l-1.03,2.14l-0.71,1.98l-0.64,1.43l-0.79,1.59l-0.08,0.64l-0.16,0.71v0.79l0.56,0.56l1.35,0.08h1.43l2.22,0.16l5.32,0.16
				L256.32,109.28z"/>
		</g>
		<g>
			<path class="st1" d="M330.06,132.85l-0.87-0.56l-2.54-3.02l-0.71-0.79l-0.56-0.95l-0.87-1.11l-0.79-1.35l-1.59-1.75l-1.11-1.67
				l-0.64-0.64l-1.19-1.59l-1.11-1.35l-0.4-0.71l-1.11-1.51l-1.51-2.14l-1.35-1.51l-0.64-0.79l-0.63-0.71l-0.64-0.87l-0.87-0.95
				l-0.79-1.27l-1.11-0.4l-1.11,0.87l-0.71,0.71l-0.79,0.95l-0.87,0.71l-0.95,1.03l-0.95,0.95l-1.03,1.11l-1.75,1.59l-1.67,1.75
				l-0.48,2.3l0.08,1.75l0.08,1.67l-0.16,2.06l0.08,1.75l-0.08,0.71v0.95l-0.08,1.51l-0.16,1.03l-0.87,1.03l-1.67,0.87l-2.22,0.16
				l-1.59-0.08l-0.95-0.4l-1.03-0.63l-0.24-0.64l-0.16-0.64l-0.32-1.83l0.08-0.71v-1.59l-0.16-2.46v-9.13l0.08-1.35l-0.08-2.3
				v-10.24l0.08-2.14v-3.49l-0.16-1.67l0.08-0.87l-0.16-1.19l-0.08-1.91v-2.14l0.08-1.98l-0.08-1.59l0.08-1.91v-1.43l0.08-0.87
				l0.16-0.71l0.4-0.95l0.87-0.71l1.27-0.32l0.79-0.08l0.87,0.08h1.75l1.27,0.16l0.71,0.4l0.87,1.03l0.32,1.03l0.08,2.06l0.08,1.83
				v4.52l-0.08,3.02l0.08,2.38l-0.08,1.75l0.08,2.06l-0.16,1.67l0.08,2.06l0.08,1.51v1.11l1.35-0.16l1.59-1.75l1.03-0.95l1.27-1.35
				l1.83-1.75l1.9-1.91l1.27-1.43l1.43-1.35l1.11-1.11l3.02-2.78l1.75-1.67l0.87-0.87l1.35-1.19l1.19-1.43l1.51-1.51l1.27-1.19
				l0.87-0.79l0.87-1.03l1.35-1.35l1.27-1.11l0.48-0.24l1.03-0.32l1.98,0.4l1.19,0.87l0.71,0.64l0.79,0.64l0.4,0.56l0.48,0.87
				l-0.08,1.51l-0.63,1.43l-0.64,0.79l-0.63,0.71l-0.87,0.87l-1.27,1.35l-4.44,4.45l-2.3,2.46l-0.79,0.87l-1.19,1.03l-1.35,1.43
				l-1.27,1.27l-0.71,1.03l-0.24,1.03l0.56,1.19l0.48,0.71l0.87,1.19l0.95,1.51l0.71,0.87l0.71,0.95l0.63,0.71l0.64,0.95l0.63,0.87
				l0.71,0.95l0.71,0.87l0.95,1.03l1.11,1.51l0.79,1.27l0.56,0.79l0.64,0.71l0.56,0.87l0.87,1.19l0.87,1.11l0.32,0.56l0.71,0.87
				l1.11,1.51l1.51,1.91l1.27,1.9l0.48,1.67l-0.4,1.19l-0.56,0.71l-1.35,1.19l-1.67,1.19l-1.51,0.56L330.06,132.85z"/>
		</g>
		<g>
			<path class="st1" d="M370.79,133.57l-1.03-0.16l-1.35-0.24l-2.14-0.32l-2.38-0.79l-1.59-0.56l-3.02-1.27l-2.14-1.19l-0.95-0.71
				l-1.35-0.95l-2.22-1.98l-1.75-1.51l-0.95-1.51l-0.71-1.35v-1.59l0.71-1.35l0.87-1.11l1.35-0.71l0.79-0.24l0.79-0.32h1.03
				l1.03,0.24l0.79,0.48l1.91,1.75l0.32,0.56l0.32,0.32l2.3,1.83l0.95,0.71l0.87,0.4l1.59,0.87l1.75,0.64l1.27,0.64l1.11,0.32
				l0.79,0.16h0.63l0.64-0.08l0.71,0.16l0.48-0.08l1.19,0.08l1.9,0.08l1.19-0.32h1.19l0.95-0.16l1.03-0.08l0.87-0.24l0.64-0.32
				l1.03-0.32l1.35-0.79l1.75-1.43l1.11-1.35l0.24-0.64l0.48-1.19l0.16-1.51l-0.24-1.98l-1.35-2.14l-1.59-0.95l-0.87-0.4l-1.19-0.4
				l-1.11-0.32l-1.19-0.16l-1.19-0.32l-1.11-0.16l-1.03-0.24l-1.11-0.08l-1.67-0.32l-1.67-0.16l-0.87-0.24l-1.67-0.16l-3.17-0.56
				l-1.11-0.24l-0.95-0.32l-1.59-0.4l-1.59-0.56l-1.11-0.48l-1.27-0.48l-1.75-0.87l-1.27-0.79l-0.32-0.16l-0.87-0.71l-1.03-0.95
				l-0.56-0.48l-0.48-0.64l-0.64-0.95l-0.4-0.71l-0.79-1.27l-0.79-3.1v-2.3l0.16-1.35l0.24-1.83l0.32-1.19l0.32-0.79l0.4-0.79
				l0.32-0.71l0.56-0.87l0.87-1.19l2.46-2.46l0.79-0.4l1.11-0.79l1.35-0.64l1.03-0.79l0.87-0.48l0.71-0.32l0.71-0.08l0.79-0.48
				l2.86-0.79l1.51-0.24l1.83-0.24l0.87-0.16l1.03-0.08l1.75-0.16l1.59,0.08h0.71l0.56,0.08l2.78,0.24l0.48,0.16h0.64l0.79,0.16
				l0.71,0.16l0.95,0.16l2.06,0.79l0.79,0.48l0.71,0.32l1.03,0.64l1.98,0.87l1.11,1.03l1.75,1.35l1.51,1.59l1.35,1.91l0.71,1.35
				l-0.16,2.38l-0.16,0.48l-0.32,0.56l-0.64,0.56l-1.43,0.87l-1.51,0.56l-1.27-0.08l-1.27-0.56l-0.79-0.56l-0.87-0.87l-1.35-1.43
				l-1.11-0.95l-0.71-0.56l-1.35-0.71l-0.87-0.71l-1.83-0.79l-1.27-0.32l-2.14-0.24l-1.43-0.08l-2.14,0.08l-1.9,0.16l-1.59,0.08
				l-2.38,0.48l-2.3,1.03l-0.95,0.56l-1.27,0.87l-1.59,1.43l-0.48,1.19l-0.32,0.95l-0.08,1.43l0.32,1.43l0.48,1.27l0.4,0.56
				l0.64,0.48l1.11,0.87l1.67,0.64l2.46,0.71l1.51,0.32l0.95,0.24l0.87,0.08l1.03,0.16l0.71,0.16l0.87,0.4h0.56l0.79,0.08h1.59
				l0.95,0.24l1.35,0.24l1.59,0.4l0.79,0.24l0.79,0.08l0.32,0.24l2.06,0.24l3.65,0.95l1.75,0.79l1.67,0.71l1.35,1.03l0.48,0.48
				l1.11,0.79l1.19,1.35l0.48,0.95l0.48,0.87l0.32,0.56l0.16,0.64l0.48,1.27l0.16,1.11l0.08,0.32l0.16,0.16l0.08,1.11v2.94
				l-0.32,1.83l-0.32,1.27l-0.4,1.11l-0.4,0.79l-0.16,0.56l-0.56,0.95l-0.71,1.03l-0.64,0.71l-0.56,0.71l-0.4,0.4l-0.56,0.71
				l-0.71,0.71l-0.95,0.64l-1.35,0.87l-0.79,0.48l-0.56,0.32l-0.79,0.4l-0.79,0.32l-0.56,0.24l-1.11,0.32l-1.59,0.56l-2.06,0.48
				l-1.91,0.16l-1.19,0.16l-1.59,0.08h-3.1L370.79,133.57z"/>
		</g>
	</g>
	<g>
		<path class="st1" d="M63.63,321.25l-0.83-0.03l-0.63,0.03h-0.43l-0.53-0.07l-1.39,0.03l-0.36,0.03l-0.73-0.03l-1.16,0.07
			l-0.73-0.1l-0.33-0.07l-0.3-0.2l-0.36-0.56l-0.1-0.96l-0.03-1.06l0.07-1.13v-0.76l-0.07-0.89l-0.07-1.13v-2.25l0.03-1.09
			l-0.03-0.73l-0.03-0.99v-0.96l0.03-0.63l-0.03-0.93v-0.56l-0.03-1.06l0.03-0.79v-0.43l0.03-0.63v-0.86l0.07-0.7v-1.39l-0.03-0.73
			l0.07-0.5l0.2-0.63l0.56-0.5l0.73-0.17l0.69,0.03L58.4,298l1.32-0.03h0.83l0.79,0.03l0.4-0.03H63l0.4,0.07l0.56,0.03l1.03-0.03
			l0.53-0.07h2.18l1.52,0.17l0.86,0.23l0.43,0.13l1.49,0.73l0.4,0.33l0.36,0.36l0.33,0.36l0.36,0.63l0.46,1.02l0.33,1.02l0.1,0.53
			v1.29l-0.03,0.5l-0.26,0.99l-0.33,0.96l-0.36,0.56l-0.5,0.66l-0.26,0.5l0.13,0.2l0.56,0.36l0.46,0.5l0.46,0.73l0.36,0.86
			l0.36,0.99l0.17,0.7l0.13,0.63l0.03,0.6l-0.03,0.89l-0.26,0.99l-0.13,0.56l-0.26,0.59l-0.33,0.73l-0.4,0.4l-0.33,0.53l-0.66,0.56
			l-0.89,0.5l-0.69,0.3l-0.5,0.13l-0.86,0.26l-0.86,0.13l-0.43,0.1l-0.5,0.03l-0.33,0.03l-0.56,0.07l-0.6-0.03l-0.86,0.03h-0.86
			L63.63,321.25z M64.59,307.29l1.42,0.03h0.53l0.66-0.07l1.12-0.17l0.59-0.23l0.63-0.5l0.33-0.43l0.3-0.5l0.1-0.69v-0.83
			l-0.17-0.53l-0.17-0.43l-0.3-0.4l-0.73-0.43l-0.79-0.3h-0.56l-0.4-0.03l-1.69,0.03l-1.29-0.03h-0.83l-0.63-0.07l-0.93-0.03
			l-1.06,0.07l-0.6,0.1l-0.26,0.1l-0.13,0.26v0.53l-0.03,0.5l-0.13,0.66l0.03,0.79v0.83l0.1,0.59v0.46l0.1,0.3l0.13,0.2l0.3,0.1
			l0.26,0.03l0.66,0.03h0.73l0.69,0.03l1.03,0.03L64.59,307.29z M65.84,317.48l0.79-0.03l0.86-0.1h0.56l0.63-0.07l0.56-0.03
			l0.53-0.17l0.33-0.2l0.43-0.4l0.33-0.53l0.13-0.26l0.17-0.36l0.07-0.56l0.07-0.66l-0.07-0.53l-0.17-0.53l-0.3-0.63l-0.33-0.4
			l-0.26-0.23l-0.26-0.17l-0.17-0.1l-0.36-0.13l-0.99-0.17l-1.22-0.03l-0.89-0.03l-0.4,0.03h-1.49l-0.43-0.03l-0.5,0.03H62.8
			l-2.45,0.03l-0.46,0.13l-0.13,0.33l0.03,0.56l0.07,0.5v0.63l-0.07,0.99l-0.07,1.26v0.73l0.13,0.89l0.26,0.13l0.17,0.07l0.69,0.03
			h1.22l1.03,0.03l0.79-0.03l0.86,0.07L65.84,317.48z"/>
		<path class="st1" d="M88.6,321.68l-0.4-0.1l-0.43-0.07l-0.99-0.23l-0.73-0.26l-0.5-0.23l-0.33-0.1l-0.5-0.33l-0.46-0.23l-0.36-0.3
			l-0.43-0.36l-0.23-0.33l-0.4-0.4l-0.43-0.53l-0.23-0.43l-0.17-0.33l-0.1-0.3l-0.13-0.5l-0.23-0.69l-0.17-0.63l-0.03-0.36
			l-0.1-0.26l0.03-0.53v-1.12l-0.07-0.5v-0.2l-0.03-0.36l-0.03-0.6l0.07-0.6l0.03-0.63v-0.6l-0.07-0.53l0.1-0.23l-0.03-0.33v-0.89
			l-0.03-0.36v-0.3l-0.07-0.43v-1.39l0.03-0.43v-0.3l-0.03-0.46l-0.03-0.43v-2.35l-0.03-0.46l0.07-0.46l-0.03-0.6l0.03-0.59
			l0.07-0.5l0.13-0.26l0.33-0.23l0.63-0.2h0.53l0.36-0.07l0.33,0.07l0.46,0.13l0.4,0.13l0.33,0.26l0.1,0.36l-0.03,0.36l0.07,0.33
			l0.03,0.56v0.53l-0.07,0.16l0.03,0.33v0.89l0.07,0.43v0.56l0.03,0.26l0.03,0.36l-0.07,0.33v0.36l-0.03,0.33l0.03,0.89v0.86
			l0.03,0.2l0.03,0.26l-0.03,0.2v0.36l-0.03,0.36l0.07,0.3l-0.03,0.59l-0.03,0.63l0.03,0.23v0.4l-0.03,0.26l0.07,0.33l-0.03,0.53
			l-0.03,0.56v0.76l0.07,0.99l0.03,0.76l0.17,0.63l0.17,0.79l0.5,0.76l0.36,0.46l0.26,0.2l0.5,0.33l0.6,0.3l0.43,0.17l0.5,0.17
			l0.43,0.1l0.43,0.07l0.56,0.03h0.26l0.83,0.03l1.39-0.1l0.56-0.17l0.69-0.23l0.63-0.23l0.3-0.26l0.4-0.36l0.26-0.33l0.13-0.1
			l0.2-0.36l0.17-0.43l0.07-0.3l0.07-0.33l0.07-0.4l0.07-0.43v-0.66l0.07-0.46l-0.03-0.17l0.07-0.23l-0.03-0.36l0.03-0.83v-0.79
			l0.07-0.66v-0.79l-0.07-0.46v-0.4l-0.03-0.63v-1.29l-0.03-0.4v-1.02L96,304.55l-0.03-0.7v-0.56l0.07-0.93v-0.76L96,301.08v-0.53
			l-0.03-0.76l0.07-0.69l0.13-0.63l0.26-0.3l0.3-0.13l0.46-0.1l0.56-0.07h0.46l0.46,0.1l0.53,0.2l0.5,0.43l0.17,0.7l0.07,0.53v0.6
			l0.03,0.53l-0.03,0.86v1.95l-0.03,0.89l-0.07,0.53l-0.03,0.56v0.53l0.03,0.46l-0.03,0.66l0.03,0.86v2.41l-0.03,0.59v0.79
			l0.03,0.73l-0.03,0.79l-0.03,0.5l-0.1,0.83l-0.1,0.66l-0.1,0.36l-0.23,0.79l-0.23,0.63l-0.3,0.56l-0.36,0.56l-0.5,0.83l-0.56,0.63
			l-0.13,0.1l-0.26,0.17l-0.33,0.17l-0.26,0.17l-0.53,0.23l-0.69,0.33l-0.63,0.2l-0.6,0.1l-0.4,0.13l-1.92,0.3h-2.51L88.6,321.68z"
			/>
		<path class="st1" d="M123.79,321.44l-0.33-0.2l-0.26-0.23l-0.36-0.4l-0.4-0.56l-0.26-0.33l-0.26-0.36l-0.26-0.4l-0.3-0.43
			l-0.2-0.33l-0.26-0.33l-0.36-0.53l-0.53-0.6l-0.36-0.46l-0.3-0.43l-0.43-0.53l-0.5-0.6l-0.4-0.56l-0.53-0.63l-0.33-0.46l-0.2-0.26
			l-0.23-0.17l-0.33-0.23l-0.33-0.17l-0.36-0.07l-0.43-0.07l-0.3,0.03l-2.05-0.07l-0.79,0.07l-0.66,0.23l-0.17,0.53l-0.07,0.89
			l-0.07,0.76l-0.03,0.4l-0.03,0.86v0.66l0.03,0.93l-0.03,0.26v0.63l-0.03,0.56v0.7l-0.07,0.46l-0.07,0.53l-0.17,0.33l-0.17,0.2
			l-0.2,0.1l-0.33,0.1h-0.4l-0.59,0.07l-0.73-0.07l-0.36-0.07l-0.33-0.13l-0.3-0.53l-0.17-0.46v-0.79l-0.03-0.79l-0.03-0.33
			l0.1-1.29v-0.79l-0.03-0.66l-0.07-0.53v-2.25l0.03-0.63l0.03-0.4l-0.03-0.26v-1.52l0.03-0.63v-1.29l-0.03-0.69v-0.46l0.07-0.33
			l-0.07-0.4v-0.66l-0.03-0.23l0.03-0.2l0.03-0.33v-0.6l-0.03-0.13l0.07-0.5v-1.59l-0.07-0.33l0.07-0.33l-0.1-0.63v-0.6l0.03-0.66
			l0.13-0.56l0.2-0.3l0.2-0.17l0.36-0.2l0.96-0.13l1.45,0.07l1.16-0.03l0.76-0.03h0.53l0.36,0.03l0.56-0.03l0.76-0.03l1.69,0.03
			h0.43l0.63-0.03h1.52l0.76,0.03l1.79,0.17l0.4,0.1l0.59,0.2l0.76,0.33l0.83,0.5l0.46,0.46l0.26,0.3l0.5,0.53l0.3,0.56l0.17,0.53
			l0.23,0.56l0.17,0.46l0.13,0.26l0.07,0.3l0.07,0.26l-0.03,0.4l0.03,0.43l0.03,0.79l0.03,1.02l-0.03,0.5l-0.07,0.26l-0.1,0.36
			l-0.13,0.36l-0.23,0.66l-0.33,0.76l-0.2,0.3l-0.2,0.33l-0.36,0.4l-0.33,0.3l-0.33,0.36l-0.56,0.36l-0.4,0.2l-0.56,0.4l-0.69,0.3
			l-0.2,0.2l0.03,0.17l0.03,0.13l0.2,0.33l0.36,0.6l0.46,0.56l0.33,0.4l0.17,0.3l0.26,0.3l0.99,1.42l0.36,0.46l0.4,0.53l0.33,0.4
			l0.26,0.43l0.36,0.46l0.23,0.6l-0.07,0.23l-0.13,0.43l-0.4,0.66l-0.46,0.3l-0.56,0.4l-0.73,0.3L123.79,321.44z M119.32,308.38
			l0.3-0.03l0.36-0.03l0.26-0.03l0.33,0.03l0.3-0.13l0.23-0.1l0.3-0.1l0.2-0.17l0.23-0.23l0.2-0.26l0.26-0.7l0.13-0.69l0.07-0.3
			l0.03-0.5l0.07-0.4l-0.07-0.5l-0.17-0.6l-0.17-0.53l-0.4-0.63l-0.56-0.36l-0.46-0.13l-0.63-0.2l-0.63-0.03l-0.5-0.03l-0.3-0.03
			h-0.3l-0.36-0.03l-0.4,0.07h-2.22l-0.46-0.03h-0.53l-0.59,0.03l-0.5-0.1h-1.03l-0.79,0.1l-0.2,0.07l-0.1,0.23l-0.03,0.43
			l-0.03,0.86v1.06l-0.03,0.76l0.03,1.06l-0.03,0.99l0.1,0.6l0.5,0.3l0.43,0.1l0.43,0.03l0.59-0.07l0.36,0.07l0.73,0.03h0.69
			l0.2,0.03l0.73-0.03h0.89l1.39,0.13H119.32z"/>
		<path class="st1" d="M142.31,321.81l-0.6-0.07l-0.63-0.2l-0.69-0.13l-0.33-0.1l-0.53-0.17l-0.93-0.26l-0.63-0.26l-1.19-0.66
			l-0.66-0.53l-0.46-0.3l-0.36-0.33l-0.63-0.53l-0.56-0.59l-0.4-0.56l-0.53-0.66l-0.5-0.76l-0.4-0.89l-0.26-0.73l-0.2-0.4
			l-0.13-0.43l-0.17-0.66l-0.1-0.53l-0.07-0.36l-0.1-0.56l-0.07-0.63l-0.07-0.3l0.03-0.4l-0.07-0.69l0.07-0.53v-0.26l0.03-0.56
			l0.13-0.53l0.07-0.5l0.13-0.46l0.07-0.36l0.13-0.43l0.17-0.3l0.1-0.3l0.07-0.23l0.26-0.5l0.3-0.53l0.2-0.3l0.33-0.63l0.53-0.63
			l0.46-0.66l0.76-0.73l0.76-0.63l0.33-0.3l0.53-0.33l0.66-0.43l0.36-0.2l0.4-0.26l0.36-0.2l0.36-0.13l0.56-0.17l0.83-0.26
			l0.79-0.26l0.69-0.1l0.43-0.1h0.76l0.66-0.03l0.76,0.1l0.83,0.07l0.23,0.07l0.5,0.07l0.66,0.17l0.5,0.1l0.33,0.1l0.83,0.3
			l0.5,0.26l0.36,0.17l0.3,0.2l0.99,0.46l0.63,0.5l0.53,0.36l0.36,0.33l0.23,0.2l0.4,0.5l0.5,0.63l0.23,0.46l0.1,0.49l-0.2,0.66
			l-0.33,0.5l-0.46,0.36l-0.69,0.36l-0.73,0.03l-0.46-0.17l-0.5-0.43l-0.66-0.63l-0.76-0.63l-0.83-0.53l-0.76-0.43l-0.59-0.23
			l-0.53-0.17l-1.85-0.33l-0.63-0.07l-0.17,0.03l-0.73,0.07l-1.12,0.2l-0.73,0.16l-0.5,0.23l-0.73,0.36l-0.69,0.43l-0.4,0.33
			l-0.3,0.3l-0.26,0.23l-0.93,1.06l-0.17,0.3l-0.23,0.33l-0.36,0.79l-0.26,0.66l-0.17,0.53l-0.23,0.73l-0.13,0.96v1.12l0.1,0.56
			l0.07,0.79l0.07,0.56l0.13,0.53l0.2,0.46l0.2,0.4l0.23,0.33l0.2,0.36l0.3,0.3l0.23,0.3l0.3,0.46l0.26,0.33l0.5,0.43l0.96,0.79
			l1.09,0.63l0.93,0.36l0.89,0.23l0.6,0.13l0.76,0.07l1.29-0.1l0.66-0.1l0.86-0.23l0.63-0.2l1.12-0.53l0.69-0.46l0.5-0.46l0.63-0.7
			l0.3-0.43l0.33-0.5l0.33-0.59l0.33-0.66l0.13-0.53l0.07-0.43l-0.03-0.33l-0.43-0.26h-1.36l-0.93,0.03l-0.33-0.07h-1.22l-0.99,0.03
			l-0.4,0.03l-0.46,0.03l-0.3-0.07H144l-0.69-0.07l-0.53-0.2l-0.26-0.4l-0.13-0.53l-0.1-0.89v-0.66l0.13-0.36l0.26-0.4l0.33-0.2
			l0.33-0.1h1.36l1.26-0.1h0.99l0.43-0.03h0.73l2.35,0.03h0.63l1.32,0.07l1.16,0.1l0.33,0.1l0.36,0.2l0.5,0.53l0.33,1.02v1.39
			l-0.13,1.19l-0.13,0.63l-0.1,0.3l-0.07,0.46l-0.3,0.76l-0.23,0.73l-0.2,0.33l-0.2,0.46l-0.3,0.53l-0.2,0.33l-0.26,0.43l-0.4,0.49
			l-0.33,0.33l-0.53,0.63l-0.69,0.66l-0.33,0.26l-0.36,0.26l-0.33,0.17l-0.2,0.17l-0.63,0.4l-0.26,0.1l-0.66,0.33l-0.66,0.23
			l-0.5,0.1l-0.46,0.17l-0.26,0.07l-0.3,0.03l-0.5,0.13h-0.56l-0.3,0.1l-0.63,0.03h-0.63l-0.4,0.07L142.31,321.81z"/>
		<path class="st1" d="M173.66,321.21l-0.23-0.03l-0.3,0.03l-0.76-0.07l-0.66,0.03l-0.43-0.03l-0.93,0.03h-0.69l-0.63-0.03h-0.53
			l-0.46,0.07l-0.53-0.03l-0.17,0.03l-0.73-0.07h-0.99l-1.09-0.03l-1.19,0.03h-1.06l-0.53-0.03l-0.53-0.3l-0.4-0.66l-0.07-0.79
			v-2.35l-0.03-1.03l0.03-0.76v-1.03l-0.03-0.63l-0.03-0.69l-0.03-0.33v-0.46l0.03-0.5v-0.79l-0.03-0.1l0.03-0.3l-0.03-0.4v-0.3
			l-0.03-0.79l0.03-1.39l0.03-0.93v-0.56l-0.03-0.96v-2.15l-0.07-0.56l0.03-0.43v-0.4l0.03-0.63v-0.36l0.03-0.63l0.03-0.89
			l0.13-0.43l0.23-0.36l0.36-0.23l0.26-0.13l0.36-0.07h0.96l1.39,0.07h2.18l0.93-0.03l0.69-0.03l1.03-0.03h2.15l0.73,0.1h0.73
			l0.53-0.07l0.93,0.03l0.53,0.03l1.32-0.07l0.36,0.03l0.5-0.03l0.53,0.07l0.5,0.2l0.26,0.4l0.2,0.66l0.07,0.69l-0.03,0.43
			l-0.2,0.59l-0.36,0.46l-0.36,0.13l-0.76,0.07l-1.19,0.03l-0.69,0.03l-0.3-0.03l-1.06,0.07h-1.55l-1.26-0.03l-0.76-0.03h-0.33
			l-0.66,0.07l-1.75,0.03h-0.6l-0.73,0.03h-0.63l-0.6,0.17l-0.1,0.53l-0.03,0.56l-0.07,0.23v0.56l-0.03,0.76l0.07,0.83l-0.03,0.86
			l0.17,0.76l0.4,0.23h0.26l0.73,0.1l0.86-0.07h0.56l0.69,0.07l0.73-0.07l2.51-0.03h1.82l0.5,0.03l0.56,0.17l0.4,0.4l0.13,0.36
			l0.07,0.33l0.03,0.26l0.07,0.76l-0.1,0.7l-0.23,0.4l-0.66,0.33h-1.75l-1.92,0.1l-1.06-0.03h-0.36l-1.36-0.03l-0.4,0.03l-0.59-0.03
			l-0.79,0.03l-0.4,0.07l-0.43,0.13l-0.23,0.2l-0.03,0.46l-0.03,0.49l-0.07,0.56v0.73l0.03,0.5v0.63l-0.03,0.53v0.89l0.3,0.86
			l0.93,0.4h2.32l0.93-0.03l0.93,0.03l1.88-0.03l0.69-0.07h1.98l0.4,0.07h0.63l1.03,0.03l0.83,0.07h0.43l0.26,0.07l0.3,0.2l0.2,0.3
			l0.1,0.6l-0.03,0.69v0.4l-0.07,0.36l-0.13,0.4l-0.2,0.26l-0.23,0.13l-0.33,0.1l-1.65,0.17l-0.86,0.1h-0.93L173.66,321.21z"/>
		<path class="st1" d="M200.95,321.44l-0.33-0.2l-0.26-0.23l-0.36-0.4l-0.4-0.56l-0.26-0.33l-0.26-0.36l-0.26-0.4l-0.3-0.43
			l-0.2-0.33l-0.26-0.33l-0.36-0.53l-0.53-0.6l-0.36-0.46l-0.3-0.43l-0.43-0.53l-0.5-0.6l-0.4-0.56l-0.53-0.63l-0.33-0.46l-0.2-0.26
			l-0.23-0.17l-0.33-0.23l-0.33-0.17l-0.36-0.07l-0.43-0.07l-0.3,0.03l-2.05-0.07l-0.79,0.07l-0.66,0.23l-0.17,0.53l-0.07,0.89
			l-0.07,0.76l-0.03,0.4l-0.03,0.86v0.66l0.03,0.93l-0.03,0.26v0.63l-0.03,0.56v0.7l-0.07,0.46l-0.07,0.53l-0.17,0.33l-0.17,0.2
			l-0.2,0.1l-0.33,0.1h-0.4l-0.59,0.07l-0.73-0.07l-0.36-0.07l-0.33-0.13l-0.3-0.53l-0.17-0.46v-0.79l-0.03-0.79l-0.03-0.33
			l0.1-1.29v-0.79l-0.03-0.66l-0.07-0.53v-2.25l0.03-0.63l0.03-0.4l-0.03-0.26v-1.52l0.03-0.63v-1.29l-0.03-0.69v-0.46l0.07-0.33
			l-0.07-0.4v-0.66l-0.03-0.23l0.03-0.2l0.03-0.33v-0.6l-0.03-0.13l0.07-0.5v-1.59l-0.07-0.33l0.07-0.33l-0.1-0.63v-0.6l0.03-0.66
			l0.13-0.56l0.2-0.3l0.2-0.17l0.36-0.2l0.96-0.13l1.45,0.07l1.16-0.03l0.76-0.03h0.53l0.36,0.03l0.56-0.03l0.76-0.03l1.69,0.03
			h0.43l0.63-0.03h1.52l0.76,0.03l1.79,0.17l0.4,0.1l0.59,0.2l0.76,0.33l0.83,0.5l0.46,0.46l0.26,0.3l0.5,0.53l0.3,0.56l0.17,0.53
			l0.23,0.56l0.17,0.46l0.13,0.26l0.07,0.3l0.07,0.26l-0.03,0.4l0.03,0.43l0.03,0.79l0.03,1.02l-0.03,0.5l-0.07,0.26l-0.1,0.36
			l-0.13,0.36l-0.23,0.66l-0.33,0.76l-0.2,0.3l-0.2,0.33l-0.36,0.4l-0.33,0.3l-0.33,0.36l-0.56,0.36l-0.4,0.2l-0.56,0.4l-0.69,0.3
			l-0.2,0.2l0.03,0.17l0.03,0.13l0.2,0.33l0.36,0.6l0.46,0.56l0.33,0.4l0.17,0.3l0.26,0.3l0.99,1.42l0.36,0.46l0.4,0.53l0.33,0.4
			l0.26,0.43l0.36,0.46l0.23,0.6l-0.07,0.23l-0.13,0.43l-0.4,0.66l-0.46,0.3l-0.56,0.4l-0.73,0.3L200.95,321.44z M196.49,308.38
			l0.3-0.03l0.36-0.03l0.26-0.03l0.33,0.03l0.3-0.13l0.23-0.1l0.3-0.1l0.2-0.17l0.23-0.23l0.2-0.26l0.26-0.7l0.13-0.69l0.07-0.3
			l0.03-0.5l0.07-0.4l-0.07-0.5l-0.17-0.6l-0.17-0.53l-0.4-0.63l-0.56-0.36l-0.46-0.13l-0.63-0.2l-0.63-0.03l-0.5-0.03l-0.3-0.03
			h-0.3l-0.36-0.03l-0.4,0.07h-2.22l-0.46-0.03h-0.53l-0.59,0.03l-0.5-0.1h-1.03l-0.79,0.1l-0.2,0.07l-0.1,0.23l-0.03,0.43
			l-0.03,0.86v1.06l-0.03,0.76l0.03,1.06l-0.03,0.99l0.1,0.6l0.5,0.3l0.43,0.1l0.43,0.03l0.59-0.07l0.36,0.07l0.73,0.03h0.69
			l0.2,0.03l0.73-0.03h0.89l1.39,0.13H196.49z"/>
		<path class="st1" d="M217.95,321.61l-0.43-0.07l-0.56-0.1l-0.89-0.13l-0.99-0.33l-0.66-0.23l-1.26-0.53l-0.89-0.5l-0.4-0.3
			l-0.56-0.4l-0.93-0.83l-0.73-0.63l-0.4-0.63l-0.3-0.56v-0.66l0.3-0.56l0.36-0.46l0.56-0.3l0.33-0.1l0.33-0.13h0.43l0.43,0.1
			l0.33,0.2l0.79,0.73l0.13,0.23l0.13,0.13l0.96,0.76l0.4,0.3l0.36,0.17l0.66,0.36l0.73,0.26l0.53,0.26l0.46,0.13l0.33,0.07h0.26
			l0.26-0.03l0.3,0.07l0.2-0.03l0.5,0.03l0.79,0.03l0.5-0.13h0.5l0.4-0.07l0.43-0.03l0.36-0.1l0.26-0.13l0.43-0.13l0.56-0.33
			l0.73-0.6l0.46-0.56l0.1-0.26l0.2-0.5l0.07-0.63l-0.1-0.83l-0.56-0.89l-0.66-0.4l-0.36-0.17l-0.5-0.17l-0.46-0.13l-0.5-0.07
			l-0.5-0.13l-0.46-0.07l-0.43-0.1l-0.46-0.03l-0.69-0.13l-0.69-0.07l-0.36-0.1l-0.69-0.07l-1.32-0.23l-0.46-0.1l-0.4-0.13
			l-0.66-0.17l-0.66-0.23l-0.46-0.2l-0.53-0.2l-0.73-0.36l-0.53-0.33l-0.13-0.07l-0.36-0.3l-0.43-0.4l-0.23-0.2l-0.2-0.26l-0.26-0.4
			l-0.17-0.3l-0.33-0.53l-0.33-1.29v-0.96l0.07-0.56l0.1-0.76l0.13-0.5l0.13-0.33l0.17-0.33l0.13-0.3l0.23-0.36l0.36-0.5l1.03-1.02
			l0.33-0.17l0.46-0.33l0.56-0.26l0.43-0.33l0.36-0.2l0.3-0.13l0.3-0.03l0.33-0.2l1.19-0.33l0.63-0.1l0.76-0.1l0.36-0.07l0.43-0.03
			l0.73-0.07l0.66,0.03h0.3l0.23,0.03l1.16,0.1l0.2,0.07h0.26l0.33,0.07l0.3,0.07l0.4,0.07l0.86,0.33l0.33,0.2l0.3,0.13l0.43,0.26
			l0.83,0.36l0.46,0.43l0.73,0.56l0.63,0.66l0.56,0.79l0.3,0.56l-0.07,0.99l-0.07,0.2l-0.13,0.23l-0.26,0.23l-0.59,0.36l-0.63,0.23
			l-0.53-0.03l-0.53-0.23l-0.33-0.23l-0.36-0.36l-0.56-0.6l-0.46-0.4l-0.3-0.23l-0.56-0.3l-0.36-0.3l-0.76-0.33l-0.53-0.13
			l-0.89-0.1l-0.59-0.03l-0.89,0.03l-0.79,0.07l-0.66,0.03l-0.99,0.2l-0.96,0.43l-0.4,0.23l-0.53,0.36l-0.66,0.59l-0.2,0.5
			l-0.13,0.4l-0.03,0.6l0.13,0.6l0.2,0.53l0.17,0.23l0.26,0.2l0.46,0.36l0.69,0.26l1.03,0.3l0.63,0.13l0.4,0.1l0.36,0.03l0.43,0.07
			l0.3,0.07l0.36,0.17h0.23l0.33,0.03h0.66l0.4,0.1l0.56,0.1l0.66,0.17l0.33,0.1l0.33,0.03l0.13,0.1l0.86,0.1l1.52,0.4l0.73,0.33
			l0.69,0.3l0.56,0.43l0.2,0.2l0.46,0.33l0.5,0.56l0.2,0.4l0.2,0.36l0.13,0.23l0.07,0.26l0.2,0.53l0.07,0.46l0.03,0.13l0.07,0.07
			l0.03,0.46v1.22l-0.13,0.76l-0.13,0.53l-0.17,0.46l-0.17,0.33l-0.07,0.23l-0.23,0.4l-0.3,0.43l-0.26,0.3l-0.23,0.3l-0.17,0.17
			l-0.23,0.3l-0.3,0.3l-0.4,0.26l-0.56,0.36l-0.33,0.2l-0.23,0.13l-0.33,0.17l-0.33,0.13l-0.23,0.1l-0.46,0.13l-0.66,0.23l-0.86,0.2
			l-0.79,0.07l-0.5,0.07l-0.66,0.03h-1.29L217.95,321.61z"/>
		<path class="st1" d="M266.01,321.18l-0.46-0.13l-0.26-0.23l-0.23-0.3l-0.07-0.46l-0.03-0.46l-0.07-0.73v-0.33l0.1-0.73l0.07-0.83
			v-0.4l0.03-0.6l-0.03-0.63l0.03-0.56v-0.86l-0.03-0.5l-0.03-0.6l0.03-0.5l0.03-0.23l-0.1-0.3l-0.07-0.26l0.13-0.1l0.17-0.07
			l-0.03-0.17h-0.07l-0.17,0.03l-0.07-0.16l0.03-0.1l0.07-0.13l-0.07-0.23v-0.33l-0.03-0.17l0.07-0.3l0.03-0.43l-0.07-0.23l0.07-0.3
			v-0.63l0.07-0.46l0.07-0.23v-0.36l-0.03-0.59l-0.03-0.56l-0.03-0.6v-0.76l-0.07-1.26v-0.63l-0.07-0.4v-1.62l-0.03-0.69v-0.4
			l0.07-0.73l0.2-0.5l0.13-0.13l0.23-0.2l0.3-0.03l0.36-0.1h0.5l0.3-0.07l0.36,0.03l1.72,0.07l0.2,0.03l0.43-0.03l0.6,0.03h0.6
			l0.5-0.03h1.09l0.23-0.07h0.5l0.63,0.03h0.3l0.3-0.07l0.33-0.03l0.36,0.03l0.33,0.07l0.3-0.1l0.23,0.03h0.13l0.17-0.07l0.3,0.07
			l0.73,0.03l0.6-0.03l0.36,0.03l0.46,0.07l0.53,0.13l0.46,0.1l0.7,0.26l0.56,0.26l0.6,0.3l0.63,0.53l0.46,0.5l0.23,0.3l0.26,0.43
			l0.23,0.46l0.17,0.43l0.13,0.36l0.03,0.26l0.17,0.43l0.13,0.6l0.07,0.46l0.1,0.46v1.09l-0.03,0.73l-0.17,0.7l-0.07,0.63l-0.26,0.5
			l-0.07,0.26l-0.17,0.33l-0.13,0.3l-0.33,0.36l-0.36,0.46l-0.17,0.23l-0.3,0.3l-0.33,0.43l-0.23,0.26l-0.26,0.13l-0.2,0.13
			l-0.26,0.13l-0.33,0.13l-0.6,0.13l-0.23,0.13l-0.36,0.17l-0.3,0.07l-0.36,0.03l-0.43,0.07h-1.46l-0.33,0.03h-0.66l-0.56-0.03
			l-0.56,0.07l-0.76-0.03l-0.96,0.1l-2.15,0.03h-0.83l-0.76,0.1l-0.23,0.56l-0.2,0.69v1.92l-0.03,0.33l0.03,0.43l-0.03,0.73
			l0.03,0.93v1.16l-0.1,0.4v0.56l-0.03,0.3l-0.17,0.33l-0.4,0.36l-0.46,0.1l-0.3,0.1l-0.53,0.03L266.01,321.18z M273.45,308.32
			l0.86-0.03l0.23-0.03l0.2,0.03l0.26-0.03l0.5-0.03l0.76,0.03l1.72-0.07l0.69-0.2l0.5-0.26l0.56-0.6l0.46-0.83l0.13-0.56l0.03-0.43
			v-0.66l-0.13-0.73l-0.17-0.73l-0.26-0.5l-0.23-0.23l-0.4-0.26l-0.96-0.43l-0.96-0.1l-0.5-0.03l-0.63,0.03l-0.43,0.03l-0.46-0.03
			l-0.36,0.03h-1.85l-0.4-0.03l-0.2-0.03h-0.2l-0.43,0.03l-0.56-0.03l-0.83,0.07l-0.76-0.07l-0.2-0.03l-0.23,0.1l-0.17,0.36
			l-0.13,0.5l-0.1,0.66v0.66l-0.03,0.43l-0.07,0.46v2.45l0.07,0.6l0.1,0.2l0.17,0.13l0.43,0.1l0.53,0.07l0.56,0.03h1.65l0.53,0.03
			L273.45,308.32z"/>
		<path class="st1" d="M291.21,321.11l-0.63-0.17l-0.46-0.46l-0.13-0.46l0.03-0.76v-1.32l0.03-0.79l-0.07-0.53l0.03-0.76l-0.07-0.83
			l0.03-0.43l0.03-0.36l-0.1-0.56v-1.03l0.07-0.79l-0.07-0.66l0.1-0.59l-0.03-0.4v-0.59l-0.1-0.6l0.03-0.4v-0.53l-0.1-0.93
			l-0.03-0.56l0.1-0.99v-0.96l0.03-0.89l-0.03-0.66v-3.17l-0.03-0.66l0.13-0.53l0.17-0.3l0.2-0.2l0.43-0.3l0.63-0.07h0.6l0.7,0.03
			l0.53,0.17l0.26,0.3l0.26,0.43l0.03,0.59l0.03,0.83v0.56l-0.03,0.36l0.07,0.56l-0.03,0.83v0.79l0.07,0.56l-0.03,0.83l-0.03,1.02
			v0.66l0.03,0.46v0.83l0.03,0.73l-0.03,0.89l0.03,1.55l-0.07,0.93v0.43l0.03,0.3v1.85l0.03,0.53v1.72l0.07,0.36v1.55l-0.03,0.76
			l-0.17,0.93l-0.17,0.36l-0.17,0.2l-0.23,0.1l-0.59,0.23h-0.7l-0.26,0.03L291.21,321.11z"/>
		<path class="st1" d="M300.34,321.25l-0.4-0.13l-0.23-0.26l-0.1-0.2l-0.07-0.23l-0.03-0.5l-0.1-0.43v-0.76l0.17-0.5l0.3-0.56
			l0.6-0.86l0.4-0.46l0.2-0.26l0.36-0.3l0.33-0.5l0.33-0.43l0.23-0.4l0.2-0.36l0.23-0.17l0.13-0.26l0.1-0.17l0.17-0.17l0.23-0.26
			l0.23-0.33l0.2-0.26l0.2-0.33l0.17-0.23l0.23-0.26l0.2-0.3l0.5-0.5l0.17-0.13l0.2-0.3l0.33-0.43l0.23-0.17l0.17-0.3l0.3-0.36
			l0.23-0.4l0.26-0.33l0.17-0.3l0.23-0.26l1.49-1.82l0.26-0.36l0.79-0.99l0.3-0.33l0.2-0.36l0.6-0.79l0.17-0.3l0.23-0.33l0.3-0.43
			l0.03-0.26l-0.1-0.1l-0.17-0.03l-1.26-0.1l-0.79,0.03h-0.63l-0.83-0.03l-0.76,0.03l-0.33-0.03l-0.7-0.03l-2.08,0.07l-0.26,0.07
			h-1.22l-0.33-0.07l-0.33,0.03l-0.4-0.03l-0.46-0.1l-0.53-0.13l-0.3-0.43l-0.13-0.36l-0.03-0.33v-0.5l-0.03-0.53l0.1-0.5l0.23-0.43
			l0.4-0.23l0.3-0.1h1.36l0.6,0.03l1.82-0.07l0.36-0.03h0.99l0.43,0.03l0.69-0.03h0.23l0.26,0.03h0.6l0.46-0.03l0.4,0.03l0.2-0.03
			h0.5l0.26,0.03l0.3-0.03l0.36-0.03l0.33,0.1l0.46,0.03l0.36-0.03l0.23,0.07l0.23-0.03h0.2l0.4-0.03l0.36-0.07l0.17,0.03l0.46-0.03
			l0.4,0.07l0.33,0.03h0.6l0.5-0.07h0.36l0.36-0.03l0.3-0.03l0.33,0.1l0.3,0.26l0.1,0.2l0.07,0.36l0.03,0.4v0.93l-0.03,0.26
			l-0.13,0.46l-0.23,0.36l-0.17,0.36l-0.46,0.6l-0.3,0.4l-0.3,0.3l-0.36,0.5l-0.3,0.46l-0.17,0.26l-1.03,1.19l-0.4,0.5l-0.3,0.33
			l-0.43,0.56l-0.4,0.53l-0.3,0.36l-0.23,0.26l-0.4,0.5l-0.33,0.5l-0.3,0.4l-0.63,0.86l-0.63,0.79l-0.43,0.6l-0.23,0.33l-0.23,0.23
			l-0.3,0.43l-0.69,0.93l-0.26,0.36l-0.36,0.5l-0.26,0.4l-0.3,0.33l-0.46,0.59l-0.3,0.43l-0.23,0.33l-0.36,0.4l-0.13,0.3l0.1,0.2
			l0.93,0.13h0.6l0.36-0.03l0.43,0.07h0.7l0.69,0.03l0.5,0.03h1.72l0.76,0.03h0.33l1.06-0.1h0.33l0.3,0.07h0.59l0.26-0.03l0.33,0.03
			l0.86,0.03l1.03,0.1l0.5,0.4l0.17,0.66l0.03,0.5l-0.03,0.4l-0.17,0.79l-0.53,0.6l-0.46,0.23l-0.53,0.03l-0.59-0.1l-0.43-0.03
			l-0.2-0.07l-0.16,0.07h-0.3l-0.46,0.03l-0.23-0.03l-0.5,0.07l-0.5-0.07l-0.03-0.07l-0.07-0.1l-0.13,0.03l-0.43,0.07h-2.48
			l-0.56,0.07l-0.43-0.03h-0.4l-0.7,0.03l-0.73-0.03H306l-0.2-0.03l-0.4,0.03l-0.5-0.03l-0.5,0.03l-0.69,0.07h-0.99l-0.63,0.03
			l-0.36-0.03h-0.33l-0.5,0.1L300.34,321.25z"/>
		<path class="st1" d="M322.57,321.25l-0.4-0.13l-0.23-0.26l-0.1-0.2l-0.07-0.23l-0.03-0.5l-0.1-0.43v-0.76l0.17-0.5l0.3-0.56
			l0.6-0.86l0.4-0.46l0.2-0.26l0.36-0.3l0.33-0.5l0.33-0.43l0.23-0.4l0.2-0.36l0.23-0.17l0.13-0.26l0.1-0.17l0.17-0.17l0.23-0.26
			l0.23-0.33l0.2-0.26l0.2-0.33l0.17-0.23l0.23-0.26l0.2-0.3l0.5-0.5l0.17-0.13l0.2-0.3l0.33-0.43l0.23-0.17l0.17-0.3l0.3-0.36
			l0.23-0.4l0.26-0.33l0.17-0.3l0.23-0.26l1.49-1.82l0.26-0.36l0.79-0.99l0.3-0.33l0.2-0.36l0.6-0.79l0.17-0.3l0.23-0.33l0.3-0.43
			l0.03-0.26l-0.1-0.1l-0.17-0.03l-1.26-0.1l-0.79,0.03h-0.63l-0.83-0.03l-0.76,0.03l-0.33-0.03l-0.7-0.03l-2.08,0.07l-0.26,0.07
			h-1.22l-0.33-0.07l-0.33,0.03l-0.4-0.03l-0.46-0.1l-0.53-0.13l-0.3-0.43l-0.13-0.36l-0.03-0.33v-0.5l-0.03-0.53l0.1-0.5l0.23-0.43
			l0.4-0.23l0.3-0.1h1.36l0.6,0.03l1.82-0.07l0.36-0.03h0.99l0.43,0.03l0.69-0.03h0.23l0.26,0.03h0.6l0.46-0.03l0.4,0.03l0.2-0.03
			h0.5l0.26,0.03l0.3-0.03l0.36-0.03l0.33,0.1l0.46,0.03l0.36-0.03l0.23,0.07l0.23-0.03h0.2l0.4-0.03l0.36-0.07l0.17,0.03l0.46-0.03
			l0.4,0.07l0.33,0.03h0.6l0.5-0.07h0.36l0.36-0.03l0.3-0.03l0.33,0.1l0.3,0.26l0.1,0.2l0.07,0.36l0.03,0.4v0.93l-0.03,0.26
			l-0.13,0.46l-0.23,0.36l-0.17,0.36l-0.46,0.6l-0.3,0.4l-0.3,0.3l-0.36,0.5l-0.3,0.46l-0.17,0.26l-1.03,1.19l-0.4,0.5l-0.3,0.33
			l-0.43,0.56l-0.4,0.53l-0.3,0.36l-0.23,0.26l-0.4,0.5l-0.33,0.5l-0.3,0.4l-0.63,0.86l-0.63,0.79l-0.43,0.6l-0.23,0.33l-0.23,0.23
			l-0.3,0.43l-0.69,0.93l-0.26,0.36l-0.36,0.5l-0.26,0.4l-0.3,0.33l-0.46,0.59l-0.3,0.43l-0.23,0.33l-0.36,0.4l-0.13,0.3l0.1,0.2
			l0.93,0.13h0.6l0.36-0.03l0.43,0.07h0.7l0.69,0.03l0.5,0.03h1.72l0.76,0.03h0.33l1.06-0.1h0.33l0.3,0.07h0.59l0.26-0.03l0.33,0.03
			l0.86,0.03l1.03,0.1l0.5,0.4l0.17,0.66l0.03,0.5l-0.03,0.4l-0.17,0.79l-0.53,0.6l-0.46,0.23l-0.53,0.03l-0.59-0.1l-0.43-0.03
			l-0.2-0.07l-0.17,0.07h-0.3l-0.46,0.03l-0.23-0.03l-0.5,0.07l-0.5-0.07l-0.03-0.07l-0.07-0.1l-0.13,0.03l-0.43,0.07h-2.48
			l-0.56,0.07l-0.43-0.03h-0.4l-0.7,0.03l-0.73-0.03h-0.96l-0.2-0.03l-0.4,0.03l-0.5-0.03l-0.5,0.03l-0.69,0.07h-0.99l-0.63,0.03
			l-0.36-0.03h-0.33l-0.5,0.1L322.57,321.25z"/>
		<path class="st1" d="M345.69,321.54l-0.43-0.1l-0.6-0.3l-0.46-0.36l-0.33-0.4l-0.13-0.4v-0.59l0.3-0.6l0.2-0.5l0.17-0.36l0.2-0.4
			l0.3-0.69l0.2-0.53l0.63-1.26l0.33-0.73l0.3-0.76l0.53-1.02l0.33-0.76l0.23-0.46l0.23-0.5l0.26-0.56l0.46-1.19l0.4-0.69l0.26-0.73
			l0.46-0.99l0.53-1.22l0.3-0.66l0.5-1.26l0.36-0.76l0.17-0.5l0.3-0.56l0.23-0.46l0.07-0.26l0.13-0.33l0.17-0.46l0.23-0.33l0.2-0.4
			l0.2-0.36l0.13-0.26l0.23-0.4l0.4-0.33l0.83-0.17h0.89l0.43,0.1l0.36,0.33l0.23,0.43l0.2,0.4l0.33,0.76l0.33,0.73l0.63,1.22
			l0.2,0.53l0.23,0.43l0.2,0.59l0.26,0.6l0.17,0.46l0.23,0.46l0.36,0.83l0.36,0.73l0.23,0.59l0.23,0.4l0.13,0.36l0.23,0.5l0.3,0.53
			l0.2,0.53l0.2,0.56l0.2,0.33l0.16,0.43l0.33,0.59l0.26,0.66l0.43,1.03l0.6,1.12l0.33,0.79l0.23,0.5l0.13,0.3l0.13,0.43l0.4,0.79
			l0.3,0.63l0.17,0.26l0.3,0.63l0.23,0.7l0.17,0.56l-0.13,0.73l-0.36,0.43l-0.66,0.33l-1.16,0.3l-0.76-0.17l-0.3-0.26l-0.33-0.33
			l-0.1-0.43l-0.3-0.63l-0.36-0.76l-0.2-0.36l-0.3-0.66l-0.36-0.76l-0.13-0.3l-0.23-0.4l-0.3-0.53l-0.23-0.43l-0.33-0.23l-0.66-0.07
			l-0.83,0.03h-3.87l-1.09-0.03l-0.86,0.07l-0.46-0.03l-0.56,0.07l-0.53,0.03l-0.43,0.23l-0.2,0.3l-0.66,1.32l-0.33,0.6l-0.1,0.36
			l-0.17,0.33l-0.2,0.46l-0.26,0.56l-0.17,0.5l-0.33,0.53l-0.4,0.6l-0.36,0.3l-0.53,0.13L345.69,321.54z M357.43,311.49l0.03-0.03
			l0.1-0.03l0.13-0.3l-0.1-0.6l-0.2-0.5l-0.73-1.29l-0.33-0.63l-0.43-1.06l-0.26-0.63l-0.23-0.6l-0.36-0.86l-0.4-0.33l-0.26,0.53
			l-0.26,0.83l-0.56,1.26l-0.43,0.89l-0.3,0.83l-0.26,0.59l-0.33,0.66l-0.03,0.26l-0.07,0.3v0.33l0.23,0.23l0.56,0.03h0.6l0.93,0.07
			l2.21,0.07L357.43,311.49z"/>
		<path class="st1" d="M402.01,321.18l-0.46-0.13l-0.26-0.23l-0.23-0.3l-0.07-0.46l-0.03-0.46l-0.07-0.73v-0.33l0.1-0.73l0.07-0.83
			v-0.4l0.03-0.6l-0.03-0.63l0.03-0.56v-0.86l-0.03-0.5l-0.03-0.6l0.03-0.5l0.03-0.23l-0.1-0.3l-0.07-0.26l0.13-0.1l0.17-0.07
			l-0.03-0.17h-0.07l-0.17,0.03l-0.07-0.16l0.03-0.1l0.07-0.13l-0.07-0.23v-0.33l-0.03-0.17l0.07-0.3l0.03-0.43l-0.07-0.23l0.07-0.3
			v-0.63l0.07-0.46l0.07-0.23v-0.36l-0.03-0.59l-0.03-0.56l-0.03-0.6v-0.76l-0.07-1.26v-0.63l-0.07-0.4v-1.62l-0.03-0.69v-0.4
			l0.07-0.73l0.2-0.5l0.13-0.13l0.23-0.2l0.3-0.03l0.36-0.1h0.5l0.3-0.07l0.36,0.03l1.72,0.07l0.2,0.03l0.43-0.03l0.6,0.03h0.6
			l0.5-0.03h1.09l0.23-0.07h0.5l0.63,0.03h0.3l0.3-0.07l0.33-0.03l0.36,0.03l0.33,0.07l0.3-0.1l0.23,0.03h0.13l0.17-0.07l0.3,0.07
			l0.73,0.03l0.6-0.03l0.36,0.03l0.46,0.07l0.53,0.13l0.46,0.1l0.7,0.26l0.56,0.26l0.6,0.3l0.63,0.53l0.46,0.5l0.23,0.3l0.26,0.43
			l0.23,0.46l0.17,0.43l0.13,0.36l0.03,0.26l0.17,0.43l0.13,0.6l0.07,0.46l0.1,0.46v1.09l-0.03,0.73l-0.17,0.7l-0.07,0.63l-0.26,0.5
			l-0.07,0.26l-0.17,0.33l-0.13,0.3l-0.33,0.36l-0.36,0.46l-0.17,0.23l-0.3,0.3l-0.33,0.43l-0.23,0.26l-0.26,0.13l-0.2,0.13
			l-0.26,0.13l-0.33,0.13l-0.6,0.13l-0.23,0.13l-0.36,0.17l-0.3,0.07l-0.36,0.03l-0.43,0.07h-1.46l-0.33,0.03h-0.66l-0.56-0.03
			l-0.56,0.07l-0.76-0.03l-0.96,0.1l-2.15,0.03h-0.83l-0.76,0.1l-0.23,0.56l-0.2,0.69v1.92l-0.03,0.33l0.03,0.43l-0.03,0.73
			l0.03,0.93v1.16l-0.1,0.4v0.56l-0.03,0.3l-0.17,0.33l-0.4,0.36l-0.46,0.1l-0.3,0.1l-0.53,0.03L402.01,321.18z M409.45,308.32
			l0.86-0.03l0.23-0.03l0.2,0.03l0.26-0.03l0.49-0.03l0.76,0.03l1.72-0.07l0.7-0.2l0.49-0.26l0.56-0.6l0.46-0.83l0.13-0.56
			l0.03-0.43v-0.66l-0.13-0.73l-0.17-0.73l-0.26-0.5l-0.23-0.23l-0.4-0.26l-0.96-0.43l-0.96-0.1l-0.5-0.03l-0.63,0.03l-0.43,0.03
			l-0.46-0.03l-0.36,0.03h-1.85l-0.4-0.03l-0.2-0.03h-0.2l-0.43,0.03l-0.56-0.03l-0.83,0.07l-0.76-0.07l-0.2-0.03l-0.23,0.1
			l-0.17,0.36l-0.13,0.5l-0.1,0.66v0.66l-0.03,0.43l-0.07,0.46v2.45l0.07,0.6l0.1,0.2l0.17,0.13l0.43,0.1l0.53,0.07l0.56,0.03h1.65
			l0.53,0.03L409.45,308.32z"/>
		<path class="st1" d="M423.48,321.54l-0.43-0.1l-0.6-0.3l-0.46-0.36l-0.33-0.4l-0.13-0.4v-0.59l0.3-0.6l0.2-0.5l0.17-0.36l0.2-0.4
			l0.3-0.69l0.2-0.53l0.63-1.26l0.33-0.73l0.3-0.76l0.53-1.02l0.33-0.76l0.23-0.46l0.23-0.5l0.26-0.56l0.46-1.19l0.4-0.69l0.26-0.73
			l0.46-0.99l0.53-1.22l0.3-0.66l0.5-1.26l0.36-0.76l0.17-0.5l0.3-0.56l0.23-0.46l0.07-0.26l0.13-0.33l0.17-0.46l0.23-0.33l0.2-0.4
			l0.2-0.36l0.13-0.26l0.23-0.4l0.4-0.33l0.83-0.17h0.89l0.43,0.1l0.36,0.33l0.23,0.43l0.2,0.4l0.33,0.76l0.33,0.73l0.63,1.22
			l0.2,0.53l0.23,0.43l0.2,0.59l0.26,0.6l0.17,0.46l0.23,0.46l0.36,0.83l0.36,0.73l0.23,0.59l0.23,0.4l0.13,0.36l0.23,0.5l0.3,0.53
			l0.2,0.53l0.2,0.56l0.2,0.33l0.16,0.43l0.33,0.59l0.26,0.66l0.43,1.03l0.6,1.12l0.33,0.79l0.23,0.5l0.13,0.3l0.13,0.43l0.4,0.79
			l0.3,0.63l0.17,0.26l0.3,0.63l0.23,0.7l0.17,0.56l-0.13,0.73l-0.36,0.43l-0.66,0.33l-1.16,0.3l-0.76-0.17l-0.3-0.26l-0.33-0.33
			l-0.1-0.43l-0.3-0.63l-0.36-0.76l-0.2-0.36l-0.3-0.66l-0.36-0.76l-0.13-0.3l-0.23-0.4l-0.3-0.53l-0.23-0.43l-0.33-0.23l-0.66-0.07
			l-0.83,0.03h-3.87l-1.09-0.03l-0.86,0.07l-0.46-0.03l-0.56,0.07l-0.53,0.03l-0.43,0.23l-0.2,0.3l-0.66,1.32l-0.33,0.6l-0.1,0.36
			l-0.17,0.33l-0.2,0.46l-0.26,0.56l-0.17,0.5l-0.33,0.53l-0.4,0.6l-0.36,0.3l-0.53,0.13L423.48,321.54z M435.22,311.49l0.03-0.03
			l0.1-0.03l0.13-0.3l-0.1-0.6l-0.2-0.5l-0.73-1.29l-0.33-0.63l-0.43-1.06l-0.26-0.63l-0.23-0.6l-0.36-0.86l-0.4-0.33l-0.26,0.53
			l-0.26,0.83l-0.56,1.26l-0.43,0.89l-0.3,0.83l-0.26,0.59l-0.33,0.66l-0.03,0.26l-0.07,0.3v0.33l0.23,0.23l0.56,0.03h0.6l0.93,0.07
			l2.21,0.07L435.22,311.49z"/>
		<path class="st1" d="M456.25,321.61l-0.43-0.07l-0.56-0.1l-0.89-0.13l-0.99-0.33l-0.66-0.23l-1.26-0.53l-0.89-0.5l-0.4-0.3
			l-0.56-0.4l-0.93-0.83l-0.73-0.63l-0.4-0.63l-0.3-0.56v-0.66l0.3-0.56l0.36-0.46l0.56-0.3l0.33-0.1l0.33-0.13h0.43l0.43,0.1
			l0.33,0.2l0.79,0.73l0.13,0.23l0.13,0.13l0.96,0.76l0.4,0.3l0.36,0.17l0.66,0.36l0.73,0.26l0.53,0.26l0.46,0.13l0.33,0.07h0.26
			l0.26-0.03l0.3,0.07l0.2-0.03l0.5,0.03l0.79,0.03l0.5-0.13h0.5l0.4-0.07l0.43-0.03l0.36-0.1l0.26-0.13l0.43-0.13l0.56-0.33
			l0.73-0.6l0.46-0.56l0.1-0.26l0.2-0.5l0.07-0.63l-0.1-0.83l-0.56-0.89l-0.66-0.4l-0.36-0.17l-0.5-0.17l-0.46-0.13l-0.5-0.07
			l-0.5-0.13l-0.46-0.07l-0.43-0.1l-0.46-0.03l-0.69-0.13l-0.69-0.07l-0.36-0.1l-0.7-0.07l-1.32-0.23l-0.46-0.1l-0.4-0.13
			l-0.66-0.17l-0.66-0.23l-0.46-0.2l-0.53-0.2l-0.73-0.36l-0.53-0.33l-0.13-0.07l-0.36-0.3l-0.43-0.4l-0.23-0.2l-0.2-0.26l-0.26-0.4
			l-0.17-0.3l-0.33-0.53l-0.33-1.29v-0.96l0.07-0.56l0.1-0.76l0.13-0.5l0.13-0.33l0.17-0.33l0.13-0.3l0.23-0.36l0.36-0.5l1.02-1.02
			l0.33-0.17l0.46-0.33l0.56-0.26l0.43-0.33l0.36-0.2l0.3-0.13l0.3-0.03l0.33-0.2l1.19-0.33l0.63-0.1l0.76-0.1l0.36-0.07l0.43-0.03
			l0.73-0.07l0.66,0.03h0.3l0.23,0.03l1.16,0.1l0.2,0.07h0.26l0.33,0.07l0.3,0.07l0.4,0.07l0.86,0.33l0.33,0.2l0.3,0.13l0.43,0.26
			l0.83,0.36l0.46,0.43l0.73,0.56l0.63,0.66l0.56,0.79l0.3,0.56l-0.07,0.99l-0.07,0.2l-0.13,0.23l-0.26,0.23l-0.6,0.36l-0.63,0.23
			l-0.53-0.03l-0.53-0.23l-0.33-0.23l-0.36-0.36l-0.56-0.6l-0.46-0.4l-0.3-0.23l-0.56-0.3l-0.36-0.3l-0.76-0.33l-0.53-0.13
			l-0.89-0.1l-0.6-0.03l-0.89,0.03l-0.79,0.07l-0.66,0.03l-0.99,0.2l-0.96,0.43l-0.4,0.23l-0.53,0.36l-0.66,0.59l-0.2,0.5l-0.13,0.4
			l-0.03,0.6l0.13,0.6l0.2,0.53l0.17,0.23l0.26,0.2l0.46,0.36l0.7,0.26l1.02,0.3l0.63,0.13l0.4,0.1l0.36,0.03l0.43,0.07l0.3,0.07
			l0.36,0.17h0.23l0.33,0.03h0.66l0.4,0.1l0.56,0.1l0.66,0.17l0.33,0.1l0.33,0.03l0.13,0.1l0.86,0.1l1.52,0.4l0.73,0.33l0.69,0.3
			l0.56,0.43l0.2,0.2l0.46,0.33l0.5,0.56l0.2,0.4l0.2,0.36l0.13,0.23l0.07,0.26l0.2,0.53l0.07,0.46l0.03,0.13l0.07,0.07l0.03,0.46
			v1.22l-0.13,0.76l-0.13,0.53l-0.17,0.46l-0.17,0.33l-0.07,0.23l-0.23,0.4l-0.3,0.43l-0.26,0.3l-0.23,0.3l-0.16,0.17l-0.23,0.3
			l-0.3,0.3l-0.4,0.26l-0.56,0.36l-0.33,0.2l-0.23,0.13l-0.33,0.17l-0.33,0.13l-0.23,0.1l-0.46,0.13l-0.66,0.23l-0.86,0.2
			l-0.79,0.07l-0.5,0.07l-0.66,0.03h-1.29L456.25,321.61z"/>
		<path class="st1" d="M479.5,321.35h-0.56l-0.33-0.07l-0.46-0.26l-0.17-0.2l-0.2-0.2l-0.13-0.63v-0.69l0.03-0.5v-0.5l0.07-0.63
			l-0.03-0.83l0.03-0.63v-0.7l0.03-0.56l-0.03-1.29v-2.32l-0.07-0.79v-0.26l0.03-0.36v-0.86l-0.03-0.89l-0.03-0.56v-0.89l0.03-1.06
			v-0.69l0.03-0.26l-0.07-0.33l0.03-0.53v-0.43l-0.03-0.26v-0.36l-0.07-0.56l-0.17-0.4l-0.13-0.1l-0.69-0.03l-0.79,0.07l-0.26,0.03
			l-0.43-0.03h-0.6l-2.12-0.07l-0.69,0.03l-0.46-0.1l-0.3-0.23l-0.26-0.3l-0.2-0.46l-0.07-0.79l0.1-0.89l0.3-0.56l0.4-0.26l0.4-0.13
			l0.46-0.03l0.53-0.1h0.4l0.26,0.03h1.65l0.17,0.03h1.92l0.43,0.03h0.76l0.73,0.03h0.89l0.79-0.03l0.63-0.03l0.66,0.03l0.79-0.03
			l0.86,0.03l3.17,0.07l0.79,0.07l0.66,0.1l0.73,0.56l0.23,0.79v0.43l0.03,0.3l-0.1,0.46l-0.1,0.26l-0.13,0.2l-0.23,0.26l-0.63,0.2
			l-1.02,0.13l-1.13-0.03l-0.86,0.07l-2.38-0.07l-0.53,0.13l-0.2,0.3l-0.03,0.69v0.76l0.03,0.63l-0.03,0.66l-0.03,0.56l-0.03,0.7
			l-0.03,0.79v0.33l0.03,0.4l0.03,0.36l-0.03,0.23l0.03,0.43v0.73l-0.07,0.33l0.07,0.26l-0.03,0.36l0.03,0.36l-0.07,0.36l-0.03,0.5
			v0.46l-0.03,0.53v0.46l-0.07,0.33l0.07,0.2l-0.07,0.5l0.03,0.89v0.5l0.03,0.3l-0.07,0.36l0.03,0.3l-0.03,0.3v0.83l0.03,0.53
			l-0.07,0.43v0.3l0.1,0.23l0.07,0.33l0.03,0.36l-0.07,0.4l-0.13,0.4l-0.2,0.36l-0.23,0.1l-0.6,0.26l-0.36,0.13L479.5,321.35z"/>
		<path class="st1" d="M491.48,321.54l-0.43-0.1l-0.6-0.3l-0.46-0.36l-0.33-0.4l-0.13-0.4v-0.59l0.3-0.6l0.2-0.5l0.17-0.36l0.2-0.4
			l0.3-0.69l0.2-0.53l0.63-1.26l0.33-0.73l0.3-0.76l0.53-1.02l0.33-0.76l0.23-0.46l0.23-0.5l0.26-0.56l0.46-1.19l0.4-0.69l0.26-0.73
			l0.46-0.99l0.53-1.22l0.3-0.66l0.5-1.26l0.36-0.76l0.17-0.5l0.3-0.56l0.23-0.46l0.07-0.26l0.13-0.33l0.17-0.46l0.23-0.33l0.2-0.4
			l0.2-0.36l0.13-0.26l0.23-0.4l0.4-0.33l0.83-0.17h0.89l0.43,0.1l0.36,0.33l0.23,0.43l0.2,0.4l0.33,0.76l0.33,0.73l0.63,1.22
			l0.2,0.53l0.23,0.43l0.2,0.59l0.26,0.6l0.17,0.46l0.23,0.46l0.36,0.83l0.36,0.73l0.23,0.59l0.23,0.4l0.13,0.36l0.23,0.5l0.3,0.53
			l0.2,0.53l0.2,0.56l0.2,0.33l0.16,0.43l0.33,0.59l0.26,0.66l0.43,1.03l0.6,1.12l0.33,0.79l0.23,0.5l0.13,0.3l0.13,0.43l0.4,0.79
			l0.3,0.63l0.17,0.26l0.3,0.63l0.23,0.7l0.17,0.56l-0.13,0.73l-0.36,0.43l-0.66,0.33l-1.16,0.3l-0.76-0.17l-0.3-0.26l-0.33-0.33
			l-0.1-0.43l-0.3-0.63l-0.36-0.76l-0.2-0.36l-0.3-0.66l-0.36-0.76l-0.13-0.3l-0.23-0.4l-0.3-0.53l-0.23-0.43l-0.33-0.23l-0.66-0.07
			l-0.83,0.03h-3.87l-1.09-0.03l-0.86,0.07l-0.46-0.03l-0.56,0.07l-0.53,0.03l-0.43,0.23l-0.2,0.3l-0.66,1.32l-0.33,0.6l-0.1,0.36
			l-0.17,0.33l-0.2,0.46l-0.26,0.56l-0.17,0.5l-0.33,0.53l-0.4,0.6l-0.36,0.3l-0.53,0.13L491.48,321.54z M503.22,311.49l0.03-0.03
			l0.1-0.03l0.13-0.3l-0.1-0.6l-0.2-0.5l-0.73-1.29l-0.33-0.63l-0.43-1.06l-0.26-0.63l-0.23-0.6l-0.36-0.86l-0.4-0.33l-0.26,0.53
			l-0.26,0.83l-0.56,1.26l-0.43,0.89l-0.3,0.83l-0.26,0.59l-0.33,0.66l-0.03,0.26l-0.07,0.3v0.33l0.23,0.23l0.56,0.03h0.6l0.93,0.07
			l2.21,0.07L503.22,311.49z"/>
	</g>
</g>
</svg>
